<svg width="14" height="13" viewBox="0 0 14 13" fill="none" xmlns="http://www.w3.org/2000/svg">
<path d="M12.4194 10.35H9.08603C8.62769 10.35 8.25269 10.725 8.25269 11.1834C8.25269 11.6417 8.62769 12.0167 9.08603 12.0167H12.4194C12.8777 12.0167 13.2527 11.6417 13.2527 11.1834C13.2527 10.725 12.8777 10.35 12.4194 10.35Z" fill="#4B5258"/>
<path d="M10.8944 5.99169L11.7777 5.10835C12.3277 4.55835 12.636 3.82502 12.636 3.05002C12.636 2.27502 12.336 1.54169 11.786 0.991687C10.686 -0.108313 8.76102 -0.108313 7.66103 0.991687L1.72769 6.90835C1.01103 7.63335 0.661025 8.62502 0.769359 9.63335L0.927692 11.0917C0.969359 11.475 1.27769 11.7834 1.66103 11.825L3.11936 11.9834C3.24436 12 3.36936 12 3.49436 12C4.37769 12 5.21936 11.6584 5.84436 11.025L10.886 5.98335L10.8944 5.99169ZM10.6027 2.16669C10.836 2.40002 10.9694 2.71669 10.9694 3.05002C10.9694 3.38335 10.836 3.70002 10.6027 3.93335L10.311 4.22502L8.54436 2.45835L8.83602 2.16669C9.31102 1.69169 10.1277 1.69169 10.6027 2.16669ZM4.67769 9.85835C4.31936 10.2167 3.81936 10.3917 3.31936 10.3334L2.52769 10.2417L2.43603 9.45002C2.37769 8.94169 2.55269 8.45002 2.91103 8.08335L7.36102 3.63335L9.12769 5.40002L4.67769 9.85002V9.85835Z" fill="#4B5258"/>
</svg>
