<svg width="240" height="137" viewBox="0 0 240 137" fill="none" xmlns="http://www.w3.org/2000/svg">
<g clip-path="url(#clip0_233_5913)">
<path d="M119.53 0.519999C119.53 0.519999 -11.4101 -1.01 0.799864 87.99C13.0099 176.99 141.43 112.51 174.42 126.76C207.41 141 255.28 115.68 235.25 62.35C215.22 9.02 156.68 0.0199986 119.53 0.519999Z" fill="#FF8985"/>
<mask id="mask0_233_5913" style="mask-type:luminance" maskUnits="userSpaceOnUse" x="-1" y="0" width="241" height="137">
<path d="M119.53 0.519999C119.53 0.519999 -11.4101 -1.01 0.799864 87.99C13.0099 176.99 141.43 112.51 174.42 126.76C207.41 141 255.28 115.68 235.25 62.35C215.22 9.02 156.68 0.0199986 119.53 0.519999Z" fill="white"/>
</mask>
<g mask="url(#mask0_233_5913)">
<path d="M0 124.8C1 122.69 22.2 102.01 64.6 93.35C107 84.69 240 109.07 240 109.07V136.12H0V124.79V124.8Z" fill="#FF3553"/>
</g>
<path d="M167.21 104.18L84.4702 127.6C77.5802 129.55 70.4502 125.69 68.5502 118.98L58.1102 82.11C56.2102 75.4 60.2602 68.38 67.1502 66.43L149.97 42.98C154.11 41.81 158.55 42.71 161.82 45.4L179.57 59.99C183.55 63.26 185.09 68.58 183.47 73.47L176.07 95.78C174.72 99.84 171.39 102.99 167.2 104.18H167.21Z" fill="#045B4F"/>
<path d="M176.08 95.78C174.73 99.84 171.4 102.99 167.21 104.18L84.4698 127.6C77.5798 129.55 70.4498 125.69 68.5498 118.98" stroke="#202427" stroke-width="0.75" stroke-miterlimit="10" stroke-linecap="round"/>
<path d="M188.42 82.69L173.38 101.66C170.61 105.14 166.32 107.04 161.88 106.74L125.15 104.23C123.35 103.16 121.57 102.08 121.69 100.2C121.95 96.43 129.37 96.94 129.63 93.17C129.89 89.4 122.47 88.9 122.72 85.12C122.98 81.36 130.41 81.87 130.67 78.1C130.92 74.33 123.5 73.83 123.76 70.06C124.02 66.29 131.44 66.8 131.7 63.03C131.96 59.27 124.53 58.77 124.79 55C125.05 51.23 132.48 51.74 132.74 47.97C132.99 44.21 125.57 43.71 125.83 39.94C125.91 38.74 126.72 37.98 127.79 37.37L166.46 40C170.89 40.31 174.88 42.78 177.15 46.59L180.07 51.52L182.58 55.75L188.62 65.95L189.49 67.42C190.06 68.38 190.49 69.38 190.8 70.42C192.05 74.58 191.23 79.17 188.45 82.67L188.42 82.69Z" fill="#FFD244"/>
<path d="M150.8 51.3999C150.65 51.2399 150.39 51.1099 150.02 51.0099C149.66 50.9099 149.18 50.8299 148.61 50.7899C148.04 50.7499 147.55 50.7399 147.18 50.7499C146.8 50.7499 146.48 50.7799 146.18 50.8199C145.89 50.8599 145.63 50.9399 145.43 51.0499C145.23 51.1599 145.06 51.2899 144.9 51.4599L124.25 71.7599C125.04 72.9299 126.69 73.7299 128.12 74.6299L150.52 52.6199C150.76 52.3999 150.91 52.1799 150.96 51.9699C151.02 51.7599 150.96 51.5699 150.8 51.3999ZM154.15 79.8799C153.89 78.5299 153.34 77.3399 152.52 76.2899C151.7 75.2399 150.57 74.3699 149.14 73.6799C147.71 72.9999 145.9 72.5799 143.71 72.4299C141.7 72.2899 139.94 72.4499 138.42 72.9099C136.9 73.3799 135.64 74.0599 134.64 74.9799C133.64 75.8999 132.86 77.0099 132.31 78.3199C131.76 79.6299 131.43 81.0899 131.32 82.6699C131.2 84.3999 131.32 85.9699 131.65 87.3499C131.98 88.7299 132.58 89.9299 133.42 90.9399C134.27 91.9499 135.39 92.7499 136.79 93.3399C138.2 93.9399 139.9 94.3099 141.91 94.4499C143.9 94.5899 145.65 94.4299 147.16 93.9899C148.67 93.5499 149.95 92.8799 150.98 91.9799C152 91.0799 152.8 89.9599 153.37 88.6299C153.93 87.2799 154.27 85.7799 154.38 84.1199C154.48 82.6399 154.39 81.2199 154.13 79.8799H154.15ZM148.11 86.9799C147.88 87.8699 147.51 88.6099 147.05 89.2299C146.58 89.8399 145.97 90.2799 145.25 90.5699C144.53 90.8499 143.61 90.9399 142.51 90.8699C141.57 90.8099 140.74 90.6299 140.03 90.3499C139.32 90.0699 138.74 89.6299 138.29 89.0199C137.84 88.4199 137.52 87.6099 137.33 86.5999C137.14 85.5899 137.09 84.3599 137.19 82.8799C137.27 81.6599 137.45 80.6099 137.73 79.7199C138.02 78.8399 138.4 78.1099 138.91 77.5299C139.4 76.9599 140.02 76.5399 140.76 76.2799C141.5 76.0299 142.35 75.9299 143.32 75.9999C144.34 76.0699 145.21 76.2799 145.94 76.6399C146.66 77.0099 147.23 77.5299 147.64 78.1799C148.06 78.8499 148.34 79.6499 148.5 80.6199C148.65 81.5699 148.69 82.6599 148.6 83.8799C148.51 85.0999 148.36 86.0799 148.12 86.9699L148.11 86.9799Z" fill="white"/>
<path d="M178.06 79.7101C181.037 79.7101 183.45 77.2969 183.45 74.3201C183.45 71.3432 181.037 68.9301 178.06 68.9301C175.083 68.9301 172.67 71.3432 172.67 74.3201C172.67 77.2969 175.083 79.7101 178.06 79.7101Z" fill="#FF8985"/>
<path d="M184.41 71.54C183.59 69.67 181.97 68.23 179.97 67.65C179.51 67.52 179.02 67.42 178.53 67.39C177.6 67.33 176.69 67.45 175.84 67.74C174.99 68.02 174.2 68.47 173.5 69.09C172.11 70.31 171.27 71.99 171.15 73.85C171.02 75.7 171.62 77.48 172.84 78.88C174.06 80.28 175.75 81.12 177.6 81.24C177.75 81.25 177.92 81.26 178.09 81.26C179.76 81.26 181.36 80.6601 182.64 79.5501C183.68 78.6401 184.42 77.47 184.77 76.15C184.89 75.71 184.97 75.25 185 74.79C185.08 73.63 184.88 72.53 184.43 71.54H184.41ZM180.58 77.22C179.81 77.89 178.83 78.2301 177.79 78.1601C176.77 78.0901 175.83 77.62 175.16 76.85C174.48 76.08 174.15 75.09 174.22 74.06C174.29 73.03 174.76 72.1 175.53 71.43C175.75 71.23 175.98 71.07 176.23 70.94C176.79 70.63 177.41 70.4801 178.05 70.4801C178.14 70.4801 178.23 70.48 178.32 70.49C179.33 70.56 180.23 71.02 180.87 71.71C180.88 71.72 180.89 71.7201 180.89 71.7301C181.04 71.9001 181.18 72.07 181.3 72.27C181.3 72.28 181.31 72.2901 181.32 72.3001C181.68 72.8901 181.9 73.58 181.9 74.32C181.9 74.41 181.9 74.5 181.89 74.59C181.84 75.35 181.56 76.0701 181.11 76.6601C180.96 76.8601 180.78 77.04 180.58 77.22Z" fill="#045B4F"/>
<path d="M191.34 43.83C187.66 42.6 183.28 45.77 180.05 51.54C179.08 53.26 178.21 55.22 177.5 57.37C176.3 60.98 175.72 64.62 175.83 67.74C175.85 68.17 175.88 68.61 175.92 69.02C175.99 69.7 176.1 70.34 176.23 70.94C176.9 73.86 178.38 75.8 180.48 76.5C180.69 76.57 180.89 76.62 181.1 76.65C181.43 76.72 181.76 76.75 182.1 76.75C182.96 76.75 183.85 76.54 184.74 76.14C184.86 75.7 184.94 75.24 184.97 74.78C185.05 73.62 184.85 72.52 184.4 71.53C183.34 72.42 182.4 72.78 181.78 72.57C181.61 72.52 181.46 72.42 181.32 72.28C181.31 72.27 181.3 72.26 181.3 72.25C181.15 72.12 181.01 71.93 180.89 71.71C180.89 71.7 180.88 71.7 180.87 71.69C180.47 70.98 180.17 69.89 180.03 68.59C180 68.28 179.98 67.96 179.97 67.63C179.87 64.99 180.38 61.78 181.43 58.65C181.77 57.62 182.15 56.65 182.57 55.75C184.88 50.57 188 47.67 189.67 47.67C189.8 47.67 189.93 47.68 190.04 47.72C191.08 48.07 191.87 50.18 191.87 53.34C191.87 55.63 191.46 58.49 190.41 61.63C189.87 63.23 189.25 64.67 188.6 65.94L189.47 67.41C190.04 68.37 190.47 69.37 190.78 70.41C192.15 68.33 193.37 65.79 194.32 62.93C197.42 53.62 196.14 45.4 191.35 43.81L191.34 43.83Z" fill="#045B4F"/>
<path d="M180.87 71.71C180.87 71.71 180.89 71.72 180.89 71.73C181.04 71.9 181.18 72.07 181.3 72.27C181.3 72.28 181.31 72.29 181.32 72.3C181.68 72.89 181.9 73.58 181.9 74.32C181.9 74.41 181.9 74.5 181.89 74.59C181.84 75.35 181.56 76.07 181.11 76.66C180.96 76.86 180.78 77.04 180.58 77.22C179.81 77.89 178.83 78.23 177.79 78.16C176.77 78.09 175.83 77.62 175.16 76.85" stroke="#012F54" stroke-width="0.75" stroke-linecap="round" stroke-linejoin="round"/>
<path d="M113.6 71.59C114.09 75.33 121.47 74.36 121.97 78.1C122.46 81.84 115.09 82.82 115.58 86.55C116.07 90.28 123.45 89.33 123.95 93.07C124.45 96.81 117.07 97.79 117.56 101.53C117.81 103.4 119.77 104.1 121.75 104.8L74.7696 111.01C67.3796 111.99 60.5996 106.79 59.6196 99.4L54.3896 59.86C53.4096 52.47 58.6096 45.69 65.9996 44.71L111.06 38.75C110.13 39.56 109.49 40.47 109.65 41.66C110.14 45.4 117.52 44.43 118.02 48.16C118.52 51.89 111.14 52.88 111.63 56.62C112.12 60.36 119.5 59.39 120 63.13C120.49 66.87 113.12 67.85 113.61 71.59H113.6Z" fill="#FFD244"/>
<path d="M59.6099 99.4L54.3799 59.86C53.3999 52.47 58.5999 45.69 65.9899 44.71L111.05 38.75C110.12 39.56 109.48 40.47 109.64 41.66C110.13 45.4 117.51 44.43 118.01 48.16C118.51 51.89 111.13 52.88 111.62 56.62" stroke="#202427" stroke-width="0.75" stroke-linecap="round" stroke-linejoin="round"/>
<path d="M118.77 75.21L104.82 95.83C104.71 96.04 104.57 96.21 104.39 96.33C104.21 96.45 103.99 96.57 103.72 96.68C103.45 96.79 103.14 96.89 102.76 96.97C102.38 97.05 101.91 97.14 101.37 97.21C100.77 97.29 100.27 97.31 99.89 97.28C99.51 97.23 99.23 97.16 99.06 97.04C98.89 96.92 98.82 96.76 98.83 96.54C98.85 96.33 98.94 96.08 99.12 95.79L114.42 73.16C115.42 74.15 117.2 74.61 118.78 75.21H118.77Z" fill="white"/>
<path d="M111.17 58.39C110.63 57.12 109.86 56.06 108.85 55.19C107.84 54.32 106.57 53.7 105.02 53.3C103.48 52.92 101.62 52.87 99.4601 53.15C97.4501 53.42 95.7501 53.92 94.3601 54.67C92.9701 55.43 91.8701 56.36 91.0601 57.45C90.2601 58.55 89.7201 59.79 89.4401 61.19C89.1701 62.59 89.1401 64.08 89.3401 65.65C89.5701 67.38 89.9701 68.88 90.5801 70.17C91.1901 71.47 92.0001 72.53 93.0301 73.34C94.0501 74.16 95.3101 74.72 96.8101 75.04C98.3001 75.34 100.04 75.36 102.05 75.1C104.06 74.84 105.7 74.34 107.11 73.61C108.5 72.87 109.61 71.96 110.45 70.87C111.29 69.78 111.85 68.53 112.13 67.11C112.42 65.69 112.46 64.14 112.24 62.48C112.05 61.02 111.68 59.65 111.15 58.37L111.17 58.39ZM106.66 66.55C106.6 67.47 106.4 68.28 106.06 68.97C105.72 69.67 105.22 70.22 104.56 70.64C103.91 71.05 103.03 71.33 101.93 71.48C101 71.6 100.16 71.61 99.4101 71.48C98.6501 71.34 97.9901 71.03 97.4301 70.51C96.8801 70.01 96.4101 69.27 96.0201 68.34C95.6201 67.39 95.3301 66.18 95.1401 64.71C94.9801 63.5 94.9501 62.43 95.0501 61.51C95.1501 60.58 95.3901 59.79 95.7601 59.12C96.1301 58.46 96.6601 57.92 97.3301 57.53C98.0001 57.14 98.8101 56.88 99.7701 56.75C100.79 56.62 101.68 56.65 102.46 56.87C103.25 57.08 103.91 57.47 104.44 58.03C104.97 58.6 105.42 59.34 105.76 60.25C106.11 61.16 106.36 62.22 106.52 63.42C106.68 64.62 106.72 65.62 106.66 66.55Z" fill="white"/>
<path d="M105.76 60.25C106.11 61.16 106.36 62.22 106.52 63.42C106.68 64.62 106.72 65.62 106.66 66.55C106.6 67.47 106.4 68.28 106.06 68.97C105.72 69.67 105.22 70.22 104.56 70.64C103.91 71.05 103.03 71.33 101.93 71.48C101 71.6 100.16 71.61 99.4099 71.48C98.6499 71.34 97.9899 71.03 97.4299 70.51C96.8799 70.01 96.4099 69.27 96.0199 68.34C95.6199 67.39 95.3299 66.18 95.1399 64.71C94.9799 63.5 94.9499 62.43 95.0499 61.51C95.1499 60.58 95.3899 59.79 95.7599 59.12C96.1299 58.46 96.6599 57.92 97.3299 57.53C97.9999 57.14 98.8099 56.88 99.7699 56.75C100.79 56.62 101.68 56.65 102.46 56.87C103.25 57.08 103.91 57.47 104.44 58.03C104.97 58.6 105.42 59.34 105.76 60.25Z" fill="#FFD244"/>
<path d="M143.12 136.13H235C233.49 129.89 229.02 125.03 223.41 123.57C222.58 120.57 220.09 118.4 217.17 118.4C216.1 118.4 215.08 118.69 214.18 119.2C211.33 114.75 206.7 111.86 201.46 111.86C197.8 111.86 194.43 113.28 191.75 115.67C188.07 111.15 182.79 108.31 176.91 108.31C167.27 108.31 159.2 115.97 157.21 126.19C156.77 126.14 156.33 126.12 155.88 126.12C150.04 126.12 145.04 130.28 143.11 136.13H143.12Z" fill="#FFD244"/>
<path d="M164.27 126.53C165.63 123.51 168.93 121.8 171.84 122.6C174.75 123.4 176.98 126.64 176.96 130.02" stroke="#202427" stroke-width="0.75" stroke-miterlimit="10" stroke-linecap="round"/>
<path d="M178.95 127.7C180.41 126.24 183.15 127.23 183.58 129.38" stroke="#202427" stroke-width="0.75" stroke-miterlimit="10" stroke-linecap="round"/>
<path d="M183.23 127.57C183.28 125.87 184.07 124.23 185.3 123.24C186.53 122.25 188.17 121.96 189.6 122.47" stroke="#202427" stroke-width="0.75" stroke-miterlimit="10" stroke-linecap="round"/>
<path d="M211.63 130.96C210.95 127.68 208.05 125.16 205.07 125.27C202.09 125.38 199.33 128.08 198.82 131.4" stroke="#202427" stroke-width="0.75" stroke-miterlimit="10" stroke-linecap="round"/>
<path d="M200.71 127.87C200.91 126.56 200.23 125.14 199.14 124.61C198.05 124.08 196.67 124.49 195.96 125.56" stroke="#202427" stroke-width="0.75" stroke-miterlimit="10" stroke-linecap="round"/>
<path d="M156.49 13.36C156.49 13.36 143.07 28.66 121.57 29.06C114.31 29.19 115.1 25.54 116.3 24.06C119.54 20.08 126.9 22.61 123 26.02C115.98 32.15 94.8799 21.8 88.9199 18.17" stroke="#012F54" stroke-width="0.75" stroke-linecap="round" stroke-linejoin="round"/>
<path d="M116.75 32.7099C121.47 34.1299 144.71 37.31 164.79 23.95" stroke="#012F54" stroke-width="0.75" stroke-linecap="round" stroke-linejoin="round"/>
<path fill-rule="evenodd" clip-rule="evenodd" d="M185.94 21.2C185.94 21.2 188.92 25.18 195.66 25.8C201.23 26.31 202.2 28.34 202.2 28.34C202.2 28.34 199.85 16.5 190.3 16.41C181.64 16.33 185.93 21.2 185.93 21.2H185.94Z" fill="#3EAE30"/>
<path d="M184.99 18.05C184.99 18.05 187.12 21.59 196.98 23.9" stroke="#012F54" stroke-width="0.75" stroke-linecap="round" stroke-linejoin="round"/>
<path d="M193.54 21.78L196.67 20.37" stroke="#012F54" stroke-width="0.75" stroke-linecap="round" stroke-linejoin="round"/>
<path d="M188.8 19.62L191.93 18.21" stroke="#012F54" stroke-width="0.75" stroke-linecap="round" stroke-linejoin="round"/>
<path d="M190.01 22.1899L190.98 24.4799" stroke="#012F54" stroke-width="0.75" stroke-linecap="round" stroke-linejoin="round"/>
<path fill-rule="evenodd" clip-rule="evenodd" d="M165.8 10.64C165.8 10.64 170.7 11.34 175.86 6.96997C180.12 3.36997 182.24 4.10997 182.24 4.10997C182.24 4.10997 172.23 -2.60003 165.48 4.12997C159.35 10.24 165.8 10.64 165.8 10.64Z" fill="#9EE682"/>
<path d="M162.91 9.07999C162.91 9.07999 166.9 10.07 175.45 4.67999" stroke="#012F54" stroke-width="0.75" stroke-linecap="round" stroke-linejoin="round"/>
<path d="M171.54 5.63996L172.73 2.39996" stroke="#012F54" stroke-width="0.75" stroke-linecap="round" stroke-linejoin="round"/>
<path d="M166.69 7.48L167.88 4.25" stroke="#012F54" stroke-width="0.75" stroke-linecap="round" stroke-linejoin="round"/>
<path d="M169.35 8.43994L171.65 9.37994" stroke="#012F54" stroke-width="0.75" stroke-linecap="round" stroke-linejoin="round"/>
</g>
<defs>
<clipPath id="clip0_233_5913">
<rect width="240" height="135.63" fill="white" transform="translate(0 0.5)"/>
</clipPath>
</defs>
</svg>
