<svg width="420" height="235" viewBox="0 0 420 235" fill="none" xmlns="http://www.w3.org/2000/svg">
<g clip-path="url(#clip0_223_7846)">
<path fill-rule="evenodd" clip-rule="evenodd" d="M91.68 68.0325C91.68 68.0325 81.51 96.33 111.225 116.94C141.953 138.255 195 114.495 234.938 129.885C274.875 145.282 325.013 147.982 328.868 86.115C331.02 51.63 306.848 30.96 283.718 19.1625C264.218 9.21748 242.558 4.30498 220.665 4.22248C181.583 4.07248 105.203 11.22 91.68 68.0325Z" fill="#FFDF85"/>
<path fill-rule="evenodd" clip-rule="evenodd" d="M91.68 68.0325C91.68 68.0325 81.51 96.33 111.225 116.94C141.953 138.255 195 114.495 234.938 129.885C274.875 145.282 325.013 147.982 328.868 86.115C331.02 51.63 306.848 30.96 283.718 19.1625C264.218 9.21748 242.558 4.30498 220.665 4.22248C181.583 4.07248 105.203 11.22 91.68 68.0325Z" fill="#FEEC9A"/>
<mask id="mask0_223_7846" style="mask-type:luminance" maskUnits="userSpaceOnUse" x="90" y="4" width="240" height="136">
<path d="M91.68 68.0325C91.68 68.0325 81.51 96.33 111.225 116.94C141.953 138.255 195 114.495 234.938 129.885C274.875 145.282 325.013 147.982 328.868 86.115C331.02 51.63 306.848 30.96 283.718 19.1625C264.218 9.21748 242.558 4.30498 220.665 4.22248C181.583 4.07248 105.203 11.22 91.68 68.0325Z" fill="white"/>
</mask>
<g mask="url(#mask0_223_7846)">
<path fill-rule="evenodd" clip-rule="evenodd" d="M207.413 69.5775L120.938 77.0325C117.608 77.3175 111.195 75.8475 110.55 68.2875L105.788 12.645C105.338 7.38747 109.268 2.71497 114.525 2.26497L201 -5.19003C206.265 -5.64753 210.938 -1.71003 211.388 3.55497L216.15 59.1975C216.6 64.455 212.67 69.1275 207.413 69.5775Z" fill="#FFD245"/>
<path d="M204.949 -6.72136L115.656 0.980889C111.153 1.36925 107.818 5.33396 108.207 9.83631L113.133 66.9542C113.522 71.4566 117.487 74.7916 121.989 74.4033L211.282 66.701C215.785 66.3126 219.12 62.3479 218.731 57.8456L213.804 0.72768C213.416 -3.77467 209.451 -7.10972 204.949 -6.72136Z" fill="#FFF8CE"/>
<path d="M202.198 -2.58336L118.8 4.61035C115.433 4.90082 112.939 7.86617 113.229 11.2337L117.809 64.3315C118.1 67.699 121.065 70.1934 124.432 69.9029L207.83 62.7092C211.198 62.4187 213.692 59.4534 213.402 56.0859L208.822 2.98806C208.531 -0.379421 205.566 -2.87383 202.198 -2.58336Z" stroke="#FFE59C" stroke-width="0.75" stroke-miterlimit="10"/>
<path d="M281.19 130.778C286.965 133.868 294.915 125.093 302.183 117.555C303.773 115.928 305.438 114.285 306.338 112.035C307.058 110.243 307.11 108.188 306.218 107.085C305.333 105.998 303.503 106.155 302.393 107.618C305.678 104.228 308.258 99.795 309.63 95.025C310.365 92.5125 310.688 89.4075 308.73 88.275C307.313 87.4575 305.423 88.32 304.358 89.9925C306.36 84.735 307.38 75.375 303.39 74.9325C299.355 74.46 297.608 85.92 296.805 88.545C297.09 87.0225 297.083 85.2825 296.423 83.985C294.818 80.925 292.298 83.1075 291.728 85.74C290.625 90.885 289.755 96.495 289.478 101.933C289.628 97.9725 286.478 95.1 284.04 99.3825C283.35 100.553 282.99 101.91 282.698 103.26C281.925 106.755 280.485 110.183 279.885 113.835C278.948 119.52 281.423 131.415 281.205 130.793L281.19 130.778Z" fill="#3DAE2F"/>
<path d="M282.098 128.137C294.06 112.905 301.125 95.25 303.293 77.46" stroke="#012F54" stroke-width="0.5625" stroke-linecap="round" stroke-linejoin="round"/>
<path d="M286.5 104.205C285.795 114.803 287.108 121.028 287.1 121.2" stroke="#012F54" stroke-width="0.5625" stroke-linecap="round" stroke-linejoin="round"/>
<path d="M294.165 86.73C294.293 96.1125 296.715 102.742 296.7 102.952" stroke="#012F54" stroke-width="0.5625" stroke-linecap="round" stroke-linejoin="round"/>
<path d="M303.217 111.63C303.262 111.45 298.095 119.115 285.127 124.08" stroke="#012F54" stroke-width="0.5625" stroke-linecap="round" stroke-linejoin="round"/>
<path d="M307.38 93.0601C307.515 93.0001 302.858 104.265 293.903 109.26" stroke="#012F54" stroke-width="0.5625" stroke-linecap="round" stroke-linejoin="round"/>
<path fill-rule="evenodd" clip-rule="evenodd" d="M250.065 49.125C250.065 49.125 291.923 42.6225 293.895 59.805C297.75 93.27 281.01 141.42 281.01 141.42L200.895 132.255L232.905 56.1825L250.058 49.1325L250.065 49.125Z" fill="#FF7697"/>
<path fill-rule="evenodd" clip-rule="evenodd" d="M240.218 49.1251C240.218 49.1251 283.133 42.5326 284.048 59.8051C286.32 102.39 268.463 139.98 268.463 139.98L203.235 132.248L223.065 56.1751L240.218 49.1251Z" fill="#FF4A6D"/>
<path d="M257.693 47.8875C269.685 47.9175 283.53 50.07 284.048 59.805C285.698 90.7649 276.705 119.092 271.68 132.247" stroke="#012F54" stroke-width="0.5625" stroke-linecap="round" stroke-linejoin="round"/>
</g>
<path fill-rule="evenodd" clip-rule="evenodd" d="M263.378 130.695L259.86 137.257C259.86 137.257 240.285 135.51 201.548 130.695C188.378 129.06 208.958 104.662 208.41 104.032C207.863 103.402 263.37 130.695 263.37 130.695H263.378Z" fill="#3EAE30"/>
<path fill-rule="evenodd" clip-rule="evenodd" d="M200.145 19.5C200.145 19.5 192.915 27.555 193.14 52.845C193.14 52.845 194.408 66.795 185.94 74.2875C185.94 74.2875 202.883 90.03 233.258 80.0325C263.633 70.035 243.255 26.91 235.763 18.855L200.145 19.4925V19.5Z" fill="#30095E"/>
<path d="M199.515 81.2025C226.538 90.0675 235.583 71.2575 244.995 68.28C245.453 66.2925 244.688 64.2075 243.93 62.2875C241.86 57.0525 236.603 48.7725 237.555 43.2225C238.463 37.9575 237.938 32.9175 232.395 30.2175C227.52 27.8475 221.565 28.9725 216.825 31.5975C213.045 33.675 209.685 36.8025 208.155 40.8375C206.52 45.1575 207.15 49.965 207.803 54.5325C208.628 60.27 207.15 70.68 199.508 81.195L199.515 81.2025Z" fill="#1D063F"/>
<path d="M233.963 44.835C236.07 52.155 238.178 59.475 240.285 66.795" stroke="#30085E" stroke-width="0.5625" stroke-miterlimit="10" stroke-linecap="round"/>
<path fill-rule="evenodd" clip-rule="evenodd" d="M221.1 62.9775C221.573 63.72 222.135 64.4325 222.78 65.0775C227.73 70.0875 235.68 69.975 242.693 69.5325C246.12 69.3075 250.193 68.67 251.618 65.5425C251.655 65.4675 251.685 65.3775 251.715 65.3025C242.228 66.7575 230.093 66.855 221.1 62.9775Z" fill="#1D063F"/>
<path fill-rule="evenodd" clip-rule="evenodd" d="M272.528 121.755C271.125 127.792 265.785 132.06 259.613 132.097L221.625 132.307L212.543 132.36L218.835 104.265C216.308 101.55 215.768 93.78 216.233 89.34C217.605 76.59 218.07 74.7975 219.083 69.24C219.48 67.0875 220.005 65.865 221.67 65.055C227.22 62.355 240.353 59.025 248.295 58.2675C249.458 58.1625 250.553 57.915 251.603 57.8175C261.09 56.94 267.165 62.28 270.78 70.53C276.923 84.5475 275.963 106.98 272.513 121.747L272.528 121.755Z" fill="#3DAE2F"/>
<path d="M222.78 65.0776C222.78 65.0776 207.728 69.7276 205.65 83.3626C203.573 96.9976 196.575 124.613 202.853 129.668C221.37 144.6 241.928 95.4901 241.928 95.4901L222.78 65.0701V65.0776Z" fill="#3EAE30"/>
<path d="M224.49 85.4925V89.07C224.49 90.48 223.35 91.62 221.948 91.62H218.385C216.983 91.62 215.843 90.48 215.843 89.07V85.4925C215.843 84.0825 216.983 82.9425 218.385 82.9425H221.948C223.35 82.9425 224.49 84.0825 224.49 85.4925Z" fill="white"/>
<path d="M217.042 89.9326L218.52 85.8526C218.67 85.4401 219.21 85.3351 219.495 85.6726L220.822 87.2176C220.897 87.3001 221.025 87.3001 221.092 87.2101L223.14 84.5251C223.2 84.4426 223.327 84.5176 223.29 84.6076L221.64 88.8901C221.475 89.3251 220.912 89.4376 220.59 89.1001L219.397 87.8401C219.217 87.6526 218.91 87.6751 218.76 87.8851L217.215 90.0226C217.147 90.1201 216.997 90.0376 217.042 89.9326Z" fill="#3EAE30"/>
<path fill-rule="evenodd" clip-rule="evenodd" d="M233.558 40.305C234.465 44.82 240.09 56.055 241.703 59.5425C242.43 61.1175 239.693 69.33 232.478 71.625C227.895 73.0875 227.73 71.205 227.73 71.205C227.633 70.7325 226.32 67.2525 226.148 66.6375C225.54 64.4475 220.868 56.6325 219.413 51.495C219.413 51.495 227.58 39.06 233.55 40.2975L233.558 40.305Z" fill="#FF8985"/>
<path fill-rule="evenodd" clip-rule="evenodd" d="M232.23 40.1925C232.493 41.6175 232.755 43.1475 233.258 44.5575C236.79 54.4575 230.003 61.635 224.64 63.51C223.695 61.35 220.08 55.1025 218.85 50.295C218.85 50.295 226.095 39.4275 232.238 40.1925H232.23Z" fill="#FF3553"/>
<path d="M210.008 63.5476C208.71 63.3226 207.098 62.745 205.613 61.3875C200.798 56.9625 203.723 51.1125 203.723 51.1125L216.585 60.24C217.943 61.2075 218.933 62.6025 219.398 64.1775C219.563 64.74 219.668 65.325 219.69 65.9175L218.625 95.2125L204.893 92.8276C204.893 92.8276 210.743 63.6675 210.008 63.54V63.5476Z" fill="#FF8985"/>
<path d="M210.78 63.0825C210.653 64.4025 207.105 62.745 205.62 61.3875C200.805 56.9625 203.73 51.1125 203.73 51.1125L216.593 60.24C216.51 60.735 211.245 58.26 210.78 63.0825Z" fill="#FF3553"/>
<path d="M211.065 63.6374L212.063 60.6224C212.063 60.6224 207.51 60.3374 205.365 58.0574C203.22 55.7774 202.665 52.8374 200.663 53.6249C199.05 54.2624 205.223 62.5199 209.34 63.4049L211.073 63.6374H211.065Z" fill="#FF8985"/>
<path fill-rule="evenodd" clip-rule="evenodd" d="M232.643 45.9525C231.945 54.6675 224.288 60.015 217.35 61.395C212.175 62.4225 207 59.43 205.118 54.48C201.99 46.2375 199.215 34.2225 201.743 27.42C202.988 24.0675 211.485 18.7725 219.405 19.5825C227.333 20.3925 235.688 29.685 232.643 45.9525Z" fill="#FF8985"/>
<path d="M230.363 52.845C227.438 57.51 222.218 60.4275 217.35 61.395C214.958 61.8675 212.565 61.485 210.495 60.45" stroke="#202427" stroke-width="0.5625" stroke-miterlimit="10" stroke-linecap="round"/>
<path fill-rule="evenodd" clip-rule="evenodd" d="M232.493 43.8674C228.758 42.0224 228.518 40.6199 227.655 37.5749C217.035 38.7974 211.778 31.5449 211.83 27.9599C217.635 24.6374 234.548 25.4549 237.623 27.3449C240.54 37.3799 237.15 40.9799 232.493 43.8749V43.8674Z" fill="#30085E"/>
<path fill-rule="evenodd" clip-rule="evenodd" d="M238.725 33.285C242.655 -2.30248 182.34 7.97251 200.475 40.575C213.435 36.8475 216.21 25.44 211.838 27.945C211.838 27.945 225.93 28.575 238.725 33.285Z" fill="#30095E"/>
<path fill-rule="evenodd" clip-rule="evenodd" d="M230.978 40.2074C232.643 37.3875 237.315 37.0874 237.885 40.9499C238.455 44.8124 235.388 47.8724 232.808 47.2199C230.228 46.5674 229.718 43.2449 230.978 40.2149V40.2074Z" fill="#FF8985"/>
<path d="M202.898 41.8199C202.898 41.8199 203.88 38.9999 206.685 38.6549" stroke="#30085E" stroke-width="0.5625" stroke-miterlimit="10" stroke-linecap="round"/>
<path d="M212.063 37.6349C212.063 37.6349 213.653 36.6224 217.433 37.6349" stroke="#30085E" stroke-width="0.5625" stroke-miterlimit="10" stroke-linecap="round"/>
<path d="M217.47 40.6124C217.47 40.6124 216.098 43.5749 213.203 41.4149" stroke="#30085E" stroke-width="0.5625" stroke-miterlimit="10" stroke-linecap="round"/>
<path d="M206.685 43.2075C206.685 43.2075 205.755 45.585 203.648 43.7775" stroke="#30085E" stroke-width="0.5625" stroke-miterlimit="10" stroke-linecap="round"/>
<path d="M208.965 42.5249C209.753 43.5374 209.858 45.0449 209.205 46.1549C209.048 46.4249 208.853 46.6724 208.71 46.9499C208.568 47.2274 208.485 47.5499 208.568 47.8499C208.673 48.2249 209.025 48.4874 209.4 48.5924C209.775 48.6974 210.173 48.6674 210.555 48.6374" stroke="#FF3553" stroke-width="0.5625" stroke-miterlimit="10" stroke-linecap="round"/>
<path d="M219.3 53.5649C219.45 53.4149 219.623 53.2274 219.84 53.2949C220.05 53.3624 220.178 53.6399 220.163 53.8649C220.148 54.0899 220.028 54.2774 219.893 54.4349C219.698 54.6749 219.465 54.8924 219.18 54.9824C218.895 55.0724 218.535 55.0274 218.273 54.7949C218.168 54.7049 218.078 54.5774 218.063 54.4424C218.025 54.1424 218.408 54.1499 218.58 54.0674C218.843 53.9399 219.083 53.7749 219.285 53.5649H219.3Z" fill="#FF3553"/>
<path d="M215.715 51.8175C216.42 50.8725 218.498 51.195 218.588 53.01" stroke="#202427" stroke-width="0.5625" stroke-miterlimit="10" stroke-linecap="round"/>
<path d="M212.933 29.0099C212.933 29.0099 215.828 41.4599 229.253 39.3749" stroke="#30085E" stroke-width="0.5625" stroke-miterlimit="10" stroke-linecap="round"/>
<path d="M218.783 13.7175C225.255 13.47 229.103 15.63 232.41 19.1475C235.718 22.6575 237.795 27.315 238.215 32.13" stroke="#9E30C3" stroke-width="0.5625" stroke-miterlimit="10" stroke-linecap="round"/>
<path d="M210.465 29.535C207.915 32.6625 204.57 35.1225 200.835 36.6225" stroke="#9E30C3" stroke-width="0.5625" stroke-miterlimit="10" stroke-linecap="round"/>
<path d="M233.655 49.305C234.819 49.305 235.763 48.358 235.763 47.19C235.763 46.0219 234.819 45.075 233.655 45.075C232.491 45.075 231.548 46.0219 231.548 47.19C231.548 48.358 232.491 49.305 233.655 49.305Z" fill="#FFD244"/>
<path d="M233.258 40.5675C234.045 40.6725 234.758 41.25 235.013 42.0075C235.268 42.765 235.073 43.6575 234.51 44.2275" stroke="#FF3553" stroke-width="0.5625" stroke-miterlimit="10" stroke-linecap="round"/>
<path d="M206.393 72.8925L220.733 75.24C220.733 75.24 218.145 104.408 214.845 119.933C211.545 135.458 201.788 133.733 197.063 129.165C192.338 124.598 206.393 72.885 206.393 72.885V72.8925Z" fill="#3DAE2F"/>
<path d="M220.74 75.2474C220.74 75.2474 218.153 104.415 214.853 119.94" stroke="#012F54" stroke-width="0.5625" stroke-linecap="round" stroke-linejoin="round"/>
<path d="M215.505 129.247C215.783 130.312 215.85 131.61 214.943 132.33C214.073 133.02 212.648 132.772 211.83 132.037C211.005 131.302 210.667 130.215 210.51 129.172C210.097 126.427 210.945 119.662 214.717 118.882C215.032 118.815 215.333 118.822 215.61 118.882C216.795 119.122 217.62 120.345 217.763 121.432C218.04 123.607 216.053 124.297 215.273 126.022C214.815 127.035 215.22 128.175 215.498 129.247H215.505Z" fill="#30085E"/>
<path d="M202.823 126.915C201.593 119.985 198.96 105.42 197.88 99.4275C197.603 97.8825 196.23 96.765 194.625 96.7725L146.888 97.0425C144.75 97.0575 143.183 99.0225 143.7 101.055L150.63 128.22C150.998 129.653 152.31 130.658 153.818 130.658L199.568 130.695C201.615 130.695 203.175 128.888 202.823 126.915Z" fill="#30095E"/>
<path d="M198.233 132.24L165.893 132.18L153.645 132.165C152.175 132.157 150.9 131.152 150.54 129.727L143.76 102.555C143.258 100.522 144.78 98.5574 146.858 98.5499L192.473 98.3324H193.38C194.94 98.3174 196.275 99.4424 196.553 100.98C197.61 106.972 200.198 121.537 201.398 128.475C201.743 130.455 200.228 132.255 198.233 132.247V132.24Z" fill="#C460DB"/>
<path d="M153.645 132.157L198.225 132.24C200.22 132.24 201.743 130.44 201.398 128.467" stroke="#012F54" stroke-width="0.5625" stroke-linecap="round" stroke-linejoin="round"/>
<path fill-rule="evenodd" clip-rule="evenodd" d="M198.233 132.24L165.893 132.18C165.975 131.85 166.23 131.535 166.643 131.25C172.643 131.46 178.98 131.61 184.26 128.737C188.475 126.442 191.58 122.362 193.275 117.855C195.615 111.592 195.315 104.377 192.473 98.325H193.38C194.94 98.31 196.275 99.435 196.553 100.972C197.61 106.965 200.198 121.53 201.398 128.467C201.743 130.447 200.228 132.247 198.233 132.24Z" fill="#9E31C4"/>
<path d="M207.368 118.808C204.765 117.855 202.875 116.805 201.308 110.64C199.74 104.475 198.668 110.828 198.998 112.973C199.658 117.188 199.92 117.428 199.92 117.428C199.92 117.428 191.415 119.535 185.805 113.58C180.203 107.618 182.52 116.303 188.475 119.093C188.475 119.093 178.44 114.188 181.965 118.59C185.498 122.993 191.31 123.968 191.31 123.968C191.31 123.968 177.465 117.593 182.13 122.318C186.983 127.238 191.768 127.56 191.768 127.56C191.768 127.56 179.798 122.018 184.163 126.008C190.23 131.565 215.64 130.065 215.64 130.065C215.64 130.065 226.8 119.985 217.95 120.338C215.798 120.428 209.85 119.73 207.36 118.815L207.368 118.808Z" fill="#FF8985"/>
<path d="M187.417 118.455C189.15 119.827 191.377 120.562 193.59 120.487" stroke="#012F54" stroke-width="0.5625" stroke-linecap="round" stroke-linejoin="round"/>
<path d="M185.677 121.627C187.41 123 189.637 123.735 191.85 123.66" stroke="#012F54" stroke-width="0.5625" stroke-linecap="round" stroke-linejoin="round"/>
<path d="M184.627 124.77C186.36 126.143 188.587 126.878 190.8 126.803" stroke="#012F54" stroke-width="0.5625" stroke-linecap="round" stroke-linejoin="round"/>
<path d="M249.938 81.855C250.223 88.845 248.978 95.895 246.315 102.36C245.865 103.455 245.355 104.557 244.5 105.367C242.363 107.392 239.16 106.867 236.483 107.197C234.495 107.437 232.688 108.262 231.878 110.167C231.233 111.675 231.488 113.992 229.485 114.487C227.213 115.042 224.753 114.21 222.458 114.547C221.19 114.735 219.84 115.042 218.663 115.56C217.748 115.965 216.128 117.555 215.708 118.455C215.708 118.455 222.465 118.68 224.49 118.605C227.715 118.492 230.91 118.042 234.128 117.78C243.78 117 247.223 115.89 249.338 113.737C252.39 110.625 251.535 103.477 251.528 99.5175C251.52 93.6 250.988 87.6825 249.93 81.855H249.938Z" fill="#249521"/>
<path d="M214.943 132.33C215.843 131.61 215.775 130.312 215.505 129.247C215.228 128.175 214.823 127.035 215.28 126.022C216.06 124.305 218.048 123.607 217.77 121.432C217.628 120.345 216.803 119.13 215.618 118.882L215.715 118.455L230.618 119.122L231.548 132.045L214.95 132.33H214.943Z" fill="#3EAE30"/>
<path d="M215.715 118.455C215.715 118.455 236.378 118.748 247.193 115.733C254.355 113.738 250.29 81.2025 250.29 81.2025" stroke="#012F54" stroke-width="0.5625" stroke-linecap="round" stroke-linejoin="round"/>
<path d="M251.573 118.448C251.82 117.263 250.853 115.973 249.645 115.89C251.1 115.028 253.943 114.863 254.385 116.505" stroke="#012F54" stroke-width="0.5625" stroke-linecap="round" stroke-linejoin="round"/>
<path d="M226.95 74.4525C233.303 75.015 239.858 72.03 243.615 66.855" stroke="#012F54" stroke-width="0.5625" stroke-linecap="round" stroke-linejoin="round"/>
<path d="M203.19 16.8375C197.82 24.2475 194.325 33.0075 193.125 42.09C192.42 47.4375 192.488 52.875 191.505 58.1775C190.523 63.48 188.295 68.8275 183.998 72.0675" stroke="#30085E" stroke-width="0.5625" stroke-miterlimit="10" stroke-linecap="round"/>
<path d="M182.73 29.1974C182.73 29.1974 152.88 47.1224 151.935 33.1724C151.245 22.9649 169.53 35.5049 148.598 39.9224C138.368 42.0824 129.203 34.7174 129.203 34.7174" stroke="#012F54" stroke-width="0.5625" stroke-linecap="round" stroke-linejoin="round"/>
<path d="M187.17 34.095C182.573 39.63 176.115 43.5825 169.11 45.15" stroke="#012F54" stroke-width="0.5625" stroke-linecap="round" stroke-linejoin="round"/>
<path fill-rule="evenodd" clip-rule="evenodd" d="M128.685 26.5575C128.685 26.5575 128.055 22.0275 122.895 18.54C118.635 15.66 118.748 13.59 118.748 13.59C118.748 13.59 115.358 24.1875 123.015 28.485C129.968 32.385 128.678 26.5575 128.678 26.5575H128.685Z" fill="#3DAE2F"/>
<path d="M128.047 29.52C128.047 29.52 127.912 25.725 120.99 19.485" stroke="#012F54" stroke-width="0.5625" stroke-linecap="round" stroke-linejoin="round"/>
<path d="M122.813 22.725L119.663 22.485" stroke="#012F54" stroke-width="0.5625" stroke-linecap="round" stroke-linejoin="round"/>
<path d="M125.678 26.565L122.52 26.325" stroke="#012F54" stroke-width="0.5625" stroke-linecap="round" stroke-linejoin="round"/>
<path d="M125.85 23.9625L126.09 21.6825" stroke="#012F54" stroke-width="0.5625" stroke-linecap="round" stroke-linejoin="round"/>
<path fill-rule="evenodd" clip-rule="evenodd" d="M144.728 46.9875C144.728 46.9875 140.198 46.5 135.555 50.67C131.723 54.1125 129.75 53.4975 129.75 53.4975C129.75 53.4975 139.155 59.37 145.2 52.965C150.682 47.1525 144.728 46.9875 144.728 46.9875Z" fill="#046B5F"/>
<path d="M147.435 48.33C147.435 48.33 143.73 47.535 135.998 52.7625" stroke="#012F54" stroke-width="0.5625" stroke-linecap="round" stroke-linejoin="round"/>
<path d="M139.575 51.7649L138.562 54.7799" stroke="#012F54" stroke-width="0.5625" stroke-linecap="round" stroke-linejoin="round"/>
<path d="M143.993 49.9199L142.988 52.9274" stroke="#012F54" stroke-width="0.5625" stroke-linecap="round" stroke-linejoin="round"/>
<path d="M141.518 49.1175L139.373 48.3225" stroke="#012F54" stroke-width="0.5625" stroke-linecap="round" stroke-linejoin="round"/>
<path opacity="0.85" fill-rule="evenodd" clip-rule="evenodd" d="M203.355 63.5175C203.843 62.5425 204.098 61.8675 204.098 61.8675L203.318 61.1925C202.853 61.5075 201.705 61.905 201.135 62.16C200.445 62.475 199.643 62.3475 199.035 61.905C198.645 61.62 198.173 61.455 197.655 61.455C196.365 61.455 195.315 62.49 195.285 63.78C193.913 64.1925 192.908 65.4525 192.908 66.9675C192.908 68.13 193.5 69.15 194.393 69.75C194.13 70.1175 194.018 70.5975 194.153 71.115C194.288 71.6325 194.723 72.0825 195.255 72.225C195.968 72.42 196.62 72.1275 196.988 71.6175C197.573 72.3225 198.443 72.78 199.433 72.78C201.203 72.78 202.635 71.34 202.635 69.5625C202.635 69.5325 202.628 69.5025 202.628 69.4725C203.52 68.9925 204.128 68.0625 204.128 66.975C204.128 66.2175 203.828 65.5275 203.34 65.025C202.95 64.6125 203.093 64.0425 203.348 63.5325L203.355 63.5175Z" fill="white"/>
<path d="M195.488 63.885C196.68 63.4125 198.188 64.0575 198.675 65.25" stroke="white" stroke-width="0.5625" stroke-miterlimit="10" stroke-linecap="round"/>
<path d="M197.49 68.265C197.985 68.73 198.203 69.48 198.038 70.14" stroke="white" stroke-width="0.5625" stroke-miterlimit="10" stroke-linecap="round"/>
<path opacity="0.85" d="M194.479 63.4538C194.825 63.3059 195.015 62.9729 194.903 62.71C194.791 62.4471 194.419 62.3539 194.072 62.5019C193.726 62.6498 193.536 62.9829 193.648 63.2457C193.76 63.5086 194.132 63.6018 194.479 63.4538Z" fill="white"/>
<path opacity="0.85" d="M197.241 72.9629C197.389 72.7328 197.367 72.4556 197.193 72.3438C197.018 72.232 196.757 72.3279 196.61 72.558C196.462 72.7881 196.484 73.0653 196.658 73.1771C196.832 73.2889 197.093 73.193 197.241 72.9629Z" fill="white"/>
<path d="M134.933 110.002L133.26 130.432C133.26 130.432 129.878 133.057 124.95 133.477C121.193 133.8 117.855 132.802 116.385 132.262C115.883 132.075 115.598 131.947 115.598 131.947L110.093 112.14L134.933 109.995V110.002Z" fill="#FF4A6D"/>
<path d="M134.933 110.002C135.023 111.037 133.14 112.125 130.17 112.957C128.783 113.347 127.155 113.685 125.378 113.932C125.25 113.947 125.123 113.97 124.995 113.985C124.283 114.082 123.548 114.157 122.79 114.225C122.595 114.24 122.408 114.255 122.213 114.27C121.71 114.307 121.223 114.337 120.735 114.36C119.07 114.427 117.51 114.412 116.123 114.315C112.59 114.052 110.198 113.265 110.1 112.147C110.018 111.225 111.533 110.25 114.008 109.455C115.245 109.057 116.738 108.697 118.38 108.42C119.505 108.225 120.705 108.067 121.965 107.955L122.25 107.932C122.445 107.917 122.64 107.895 122.843 107.887C124.185 107.79 125.468 107.745 126.675 107.76C128.325 107.775 129.81 107.895 131.055 108.09C133.388 108.465 134.865 109.132 134.94 110.01L134.933 110.002Z" fill="#1D063F"/>
<path d="M126.802 109.155C126.99 111.36 126.36 112.965 125.37 113.925C125.257 114.037 125.002 114.06 124.987 113.977C124.275 114.075 123.54 114.15 122.782 114.217C122.587 114.232 122.4 114.247 122.205 114.262C121.702 114.3 121.215 114.33 120.727 114.352C119.572 113.572 118.665 112.095 118.477 109.867C118.44 109.395 118.402 108.9 118.372 108.405C118.282 106.635 118.267 104.722 118.335 102.855C118.537 97.125 119.49 91.74 121.11 91.5975C122.565 91.47 124.207 95.61 125.37 100.515C125.94 102.87 126.39 105.412 126.66 107.737C126.712 108.217 126.765 108.69 126.802 109.147V109.155Z" fill="#3EAE30"/>
<path d="M131.048 108.075C130.838 109.62 130.583 111.12 130.283 112.492C130.245 112.65 130.208 112.807 130.17 112.957C128.783 113.347 125.003 114.067 124.988 113.985C124.275 114.082 123.54 114.157 122.783 114.225C122.588 114.24 122.4 114.255 122.205 114.27C121.883 113.302 121.815 112.11 122.123 110.707C122.25 110.122 122.393 109.515 122.55 108.907C122.64 108.57 122.73 108.225 122.828 107.88C123.518 105.397 124.418 102.795 125.37 100.53C126.998 96.6749 128.798 93.7724 130.035 94.0424C131.85 94.4399 131.91 101.58 131.048 108.082V108.075Z" fill="#3EAE30"/>
<path d="M124.987 113.985C124.275 114.082 123.54 114.157 122.782 114.225C122.587 114.24 122.4 114.255 122.205 114.27C121.702 114.307 121.215 114.337 120.727 114.36C119.062 114.427 117.502 114.412 116.115 114.315C115.365 112.785 114.637 111.12 114 109.455C111.9 104.062 110.625 98.6324 112.08 97.8599C113.197 97.2599 115.725 99.5774 118.335 102.87C119.572 104.422 120.817 106.185 121.957 107.955C122.16 108.277 122.355 108.592 122.55 108.907C123.142 109.875 123.69 110.835 124.185 111.75C124.605 112.545 124.86 113.295 124.987 113.992V113.985Z" fill="#3EAE30"/>
<path d="M122.212 114.27C121.89 113.302 121.822 112.11 122.13 110.707C122.257 110.122 122.4 109.515 122.557 108.907C122.647 108.57 122.737 108.225 122.835 107.88C123.525 105.397 124.425 102.795 125.377 100.53C127.005 96.6749 128.805 93.7724 130.042 94.0424" stroke="#012F54" stroke-width="0.5625" stroke-linecap="round" stroke-linejoin="round"/>
<path d="M120.735 114.36C119.58 113.58 118.672 112.102 118.485 109.875C118.447 109.402 118.41 108.907 118.38 108.412C118.29 106.642 118.275 104.73 118.342 102.862C118.545 97.1325 119.497 91.7475 121.117 91.605" stroke="#012F54" stroke-width="0.5625" stroke-linecap="round" stroke-linejoin="round"/>
<path d="M134.933 110.002L133.26 130.432C133.26 130.432 129.878 133.057 124.95 133.477C121.193 133.8 117.855 132.802 116.385 132.262C116.385 131.722 116.595 131.167 117.053 130.882C117.548 130.575 118.185 130.642 118.763 130.687C122.175 130.95 126 130.02 128.835 128.1C128.49 127.2 128.543 126.15 128.978 125.287C129.413 124.425 131.31 123.15 132.233 122.902C132.308 118.665 131.873 116.602 131.955 112.365C131.955 112.267 132.053 112.432 133.875 111.337C134.873 110.737 134.933 110.002 134.933 110.002Z" fill="#FF7697"/>
<path d="M121.568 96.9674L122.558 108.9" stroke="#012F54" stroke-width="0.5625" stroke-linecap="round" stroke-linejoin="round"/>
<path d="M128.865 100.612L126.06 113.617" stroke="#012F54" stroke-width="0.5625" stroke-linecap="round" stroke-linejoin="round"/>
<path d="M113.925 102.315L118.605 111.412" stroke="#012F54" stroke-width="0.5625" stroke-linecap="round" stroke-linejoin="round"/>
<path d="M112.058 116.107C112.058 116.107 123.548 120.112 133.763 114.232" stroke="#012F54" stroke-width="0.5625" stroke-linecap="round" stroke-linejoin="round"/>
<path fill-rule="evenodd" clip-rule="evenodd" d="M272.528 121.755C271.125 127.792 265.785 132.06 259.613 132.097L221.625 132.307C215.843 132.735 216.555 131.827 235.283 130.23C240.885 129.75 262.755 130.717 266.798 126.802C273.878 119.932 273.54 99.765 273.735 92.7075C274.013 82.4775 270.57 70.92 270.795 70.5375C276.938 84.555 275.978 106.987 272.528 121.755Z" fill="#9EE682"/>
<path d="M281.76 139.17C281.76 139.17 299.063 139.89 309.195 135.93C311.4 135.082 313.688 134.257 315.51 132.525C316.965 131.145 317.903 129.225 317.535 127.792C317.168 126.382 315.375 125.73 313.688 126.63C318.255 124.86 322.613 121.792 325.973 117.877C327.75 115.822 329.408 113.032 328.043 111.105C327.06 109.717 324.893 109.71 323.168 110.82C327.338 106.725 332.348 98.3175 328.763 96.165C325.148 93.96 318.54 104.025 316.65 106.155C317.58 104.842 318.323 103.185 318.263 101.677C318.068 98.085 314.745 99.0525 313.065 101.295C309.795 105.682 306.548 110.602 303.938 115.62C305.79 111.945 304.058 107.85 299.903 110.835C298.74 111.637 297.818 112.77 296.955 113.917C294.713 116.887 292.628 119.535 290.235 122.542C288.758 124.455 285.165 129.712 283.778 132.75L281.76 139.177V139.17Z" fill="#9EE682"/>
<path d="M285.63 137.175C303.525 127.987 317.85 114.382 327.585 98.5125" stroke="#012F54" stroke-width="0.5625" stroke-linecap="round" stroke-linejoin="round"/>
<path d="M300.142 116.475C294.885 126.188 293.437 132.638 293.355 132.795" stroke="#012F54" stroke-width="0.5625" stroke-linecap="round" stroke-linejoin="round"/>
<path d="M314.955 103.297C311.017 112.222 310.44 119.55 310.335 119.737" stroke="#012F54" stroke-width="0.5625" stroke-linecap="round" stroke-linejoin="round"/>
<path d="M312.727 130.777C312.84 130.627 304.642 135.622 290.242 134.662" stroke="#012F54" stroke-width="0.5625" stroke-linecap="round" stroke-linejoin="round"/>
<path d="M324.705 115.035C324.863 115.035 315.578 123.66 304.958 124.478" stroke="#012F54" stroke-width="0.5625" stroke-linecap="round" stroke-linejoin="round"/>
<path d="M150.075 105.817C151.467 105.817 152.595 104.689 152.595 103.297C152.595 101.906 151.467 100.777 150.075 100.777C148.683 100.777 147.555 101.906 147.555 103.297C147.555 104.689 148.683 105.817 150.075 105.817Z" fill="#9E31C4"/>
</g>
<path d="M105.36 174V159.612H107.912V165.398H113.742V159.612H116.294V174H113.742V167.62H107.912V174H105.36ZM122.346 174.264C121.715 174.264 121.158 174.132 120.674 173.868C120.19 173.604 119.809 173.237 119.53 172.768C119.266 172.284 119.134 171.727 119.134 171.096C119.134 169.879 119.64 168.962 120.652 168.346C121.679 167.715 123.299 167.283 125.514 167.048C125.499 166.681 125.426 166.344 125.294 166.036C125.177 165.728 124.971 165.486 124.678 165.31C124.399 165.119 124.018 165.024 123.534 165.024C123.006 165.024 122.485 165.119 121.972 165.31C121.473 165.501 120.982 165.743 120.498 166.036L119.574 164.32C119.97 164.071 120.403 163.843 120.872 163.638C121.341 163.418 121.84 163.249 122.368 163.132C122.896 163 123.446 162.934 124.018 162.934C124.913 162.934 125.653 163.117 126.24 163.484C126.841 163.836 127.289 164.364 127.582 165.068C127.89 165.757 128.044 166.608 128.044 167.62V174H125.954L125.778 172.812H125.69C125.191 173.223 124.671 173.567 124.128 173.846C123.585 174.125 122.991 174.264 122.346 174.264ZM123.138 172.196C123.578 172.196 123.981 172.108 124.348 171.932C124.729 171.741 125.118 171.463 125.514 171.096V168.808C124.531 168.925 123.754 169.079 123.182 169.27C122.61 169.461 122.199 169.695 121.95 169.974C121.715 170.238 121.598 170.553 121.598 170.92C121.598 171.375 121.745 171.705 122.038 171.91C122.331 172.101 122.698 172.196 123.138 172.196ZM134.086 174.264C133.338 174.264 132.597 174.125 131.864 173.846C131.145 173.567 130.522 173.179 129.994 172.68L131.116 171.228C131.6 171.624 132.091 171.91 132.59 172.086C133.088 172.262 133.616 172.35 134.174 172.35C134.76 172.35 135.193 172.225 135.472 171.976C135.75 171.727 135.89 171.419 135.89 171.052C135.89 170.759 135.78 170.509 135.56 170.304C135.354 170.099 135.083 169.923 134.746 169.776C134.408 169.629 134.034 169.483 133.624 169.336C133.096 169.145 132.604 168.918 132.15 168.654C131.695 168.375 131.321 168.038 131.028 167.642C130.749 167.231 130.61 166.74 130.61 166.168C130.61 165.215 130.962 164.437 131.666 163.836C132.37 163.235 133.323 162.934 134.526 162.934C135.259 162.934 135.934 163.059 136.55 163.308C137.166 163.543 137.694 163.851 138.134 164.232L137.012 165.662C136.63 165.383 136.242 165.178 135.846 165.046C135.45 164.914 135.032 164.848 134.592 164.848C134.049 164.848 133.646 164.965 133.382 165.2C133.118 165.435 132.986 165.713 132.986 166.036C132.986 166.3 133.066 166.527 133.228 166.718C133.404 166.894 133.653 167.055 133.976 167.202C134.298 167.334 134.687 167.473 135.142 167.62C135.699 167.811 136.22 168.045 136.704 168.324C137.188 168.588 137.569 168.933 137.848 169.358C138.141 169.769 138.288 170.289 138.288 170.92C138.288 171.536 138.126 172.101 137.804 172.614C137.481 173.113 137.004 173.516 136.374 173.824C135.758 174.117 134.995 174.264 134.086 174.264ZM140.546 174V163.198H143.076V174H140.546ZM141.8 161.306C141.36 161.306 140.994 161.174 140.7 160.91C140.422 160.646 140.282 160.294 140.282 159.854C140.282 159.414 140.422 159.069 140.7 158.82C140.994 158.556 141.36 158.424 141.8 158.424C142.255 158.424 142.622 158.556 142.9 158.82C143.179 159.069 143.318 159.414 143.318 159.854C143.318 160.294 143.179 160.646 142.9 160.91C142.622 161.174 142.255 161.306 141.8 161.306ZM148.768 174.22C148.167 174.22 147.683 174.103 147.316 173.868C146.964 173.619 146.708 173.267 146.546 172.812C146.385 172.357 146.304 171.815 146.304 171.184V158.468H148.834V171.316C148.834 171.639 148.893 171.859 149.01 171.976C149.128 172.093 149.26 172.152 149.406 172.152C149.465 172.152 149.516 172.152 149.56 172.152C149.619 172.137 149.692 172.123 149.78 172.108L150.11 174C149.964 174.059 149.773 174.11 149.538 174.154C149.318 174.198 149.062 174.22 148.768 174.22ZM159.805 174V161.768H155.647V159.612H166.515V161.768H162.357V174H159.805ZM168.691 174V163.198H171.221V174H168.691ZM169.945 161.306C169.505 161.306 169.138 161.174 168.845 160.91C168.566 160.646 168.427 160.294 168.427 159.854C168.427 159.414 168.566 159.069 168.845 158.82C169.138 158.556 169.505 158.424 169.945 158.424C170.4 158.424 170.766 158.556 171.045 158.82C171.324 159.069 171.463 159.414 171.463 159.854C171.463 160.294 171.324 160.646 171.045 160.91C170.766 161.174 170.4 161.306 169.945 161.306ZM178.233 174.264C176.883 174.264 175.805 173.765 174.999 172.768C174.192 171.771 173.789 170.385 173.789 168.61C173.789 167.437 174.001 166.425 174.427 165.574C174.867 164.723 175.431 164.071 176.121 163.616C176.825 163.161 177.573 162.934 178.365 162.934C178.981 162.934 179.501 163.037 179.927 163.242C180.367 163.447 180.792 163.741 181.203 164.122L181.115 162.384V158.468H183.645V174H181.555L181.379 172.834H181.291C180.895 173.23 180.433 173.567 179.905 173.846C179.377 174.125 178.819 174.264 178.233 174.264ZM178.849 172.174C179.274 172.174 179.67 172.079 180.037 171.888C180.403 171.683 180.763 171.375 181.115 170.964V165.926C180.748 165.589 180.381 165.354 180.015 165.222C179.648 165.09 179.281 165.024 178.915 165.024C178.445 165.024 178.02 165.163 177.639 165.442C177.272 165.721 176.971 166.124 176.737 166.652C176.517 167.18 176.407 167.825 176.407 168.588C176.407 169.747 176.619 170.634 177.045 171.25C177.47 171.866 178.071 172.174 178.849 172.174ZM189.485 174.264C188.854 174.264 188.297 174.132 187.813 173.868C187.329 173.604 186.947 173.237 186.669 172.768C186.405 172.284 186.273 171.727 186.273 171.096C186.273 169.879 186.779 168.962 187.791 168.346C188.817 167.715 190.438 167.283 192.653 167.048C192.638 166.681 192.565 166.344 192.433 166.036C192.315 165.728 192.11 165.486 191.817 165.31C191.538 165.119 191.157 165.024 190.673 165.024C190.145 165.024 189.624 165.119 189.111 165.31C188.612 165.501 188.121 165.743 187.637 166.036L186.713 164.32C187.109 164.071 187.541 163.843 188.011 163.638C188.48 163.418 188.979 163.249 189.507 163.132C190.035 163 190.585 162.934 191.157 162.934C192.051 162.934 192.792 163.117 193.379 163.484C193.98 163.836 194.427 164.364 194.721 165.068C195.029 165.757 195.183 166.608 195.183 167.62V174H193.093L192.917 172.812H192.829C192.33 173.223 191.809 173.567 191.267 173.846C190.724 174.125 190.13 174.264 189.485 174.264ZM190.277 172.196C190.717 172.196 191.12 172.108 191.487 171.932C191.868 171.741 192.257 171.463 192.653 171.096V168.808C191.67 168.925 190.893 169.079 190.321 169.27C189.749 169.461 189.338 169.695 189.089 169.974C188.854 170.238 188.737 170.553 188.737 170.92C188.737 171.375 188.883 171.705 189.177 171.91C189.47 172.101 189.837 172.196 190.277 172.196ZM198.21 174V158.468H200.718V168.148H200.784L204.744 163.198H207.538L203.864 167.62L207.912 174H205.162L202.39 169.314L200.718 171.228V174H198.21ZM214.329 174V159.612H218.179C219.646 159.612 220.9 159.876 221.941 160.404C222.982 160.932 223.782 161.724 224.339 162.78C224.896 163.836 225.175 165.156 225.175 166.74C225.175 168.324 224.896 169.659 224.339 170.744C223.796 171.815 223.012 172.629 221.985 173.186C220.958 173.729 219.734 174 218.311 174H214.329ZM216.881 171.932H218.003C218.971 171.932 219.792 171.749 220.467 171.382C221.156 171.001 221.677 170.429 222.029 169.666C222.381 168.903 222.557 167.928 222.557 166.74C222.557 165.567 222.381 164.606 222.029 163.858C221.677 163.11 221.156 162.56 220.467 162.208C219.792 161.856 218.971 161.68 218.003 161.68H216.881V171.932ZM227.859 174V163.198H230.389V174H227.859ZM229.113 161.306C228.673 161.306 228.306 161.174 228.013 160.91C227.734 160.646 227.595 160.294 227.595 159.854C227.595 159.414 227.734 159.069 228.013 158.82C228.306 158.556 228.673 158.424 229.113 158.424C229.568 158.424 229.934 158.556 230.213 158.82C230.492 159.069 230.631 159.414 230.631 159.854C230.631 160.294 230.492 160.646 230.213 160.91C229.934 161.174 229.568 161.306 229.113 161.306ZM237.423 174.22C236.176 174.22 235.289 173.861 234.761 173.142C234.247 172.409 233.991 171.463 233.991 170.304V165.2H232.451V163.308L234.123 163.198L234.431 159.81H236.543V163.198H239.293V165.2H236.543V170.304C236.543 170.935 236.667 171.411 236.917 171.734C237.166 172.042 237.547 172.196 238.061 172.196C238.251 172.196 238.442 172.181 238.633 172.152C238.823 172.123 239.007 172.064 239.183 171.976L239.645 173.758C239.366 173.89 239.036 174 238.655 174.088C238.273 174.176 237.863 174.22 237.423 174.22ZM245.864 174.264C244.852 174.264 243.936 174.044 243.114 173.604C242.308 173.149 241.67 172.504 241.2 171.668C240.731 170.817 240.496 169.791 240.496 168.588C240.496 167.415 240.738 166.41 241.222 165.574C241.706 164.723 242.33 164.071 243.092 163.616C243.855 163.161 244.662 162.934 245.512 162.934C246.495 162.934 247.316 163.154 247.976 163.594C248.636 164.034 249.128 164.643 249.45 165.42C249.788 166.183 249.956 167.063 249.956 168.06C249.956 168.295 249.942 168.522 249.912 168.742C249.898 168.962 249.868 169.175 249.824 169.38H242.388V167.444H247.712C247.712 166.667 247.536 166.058 247.184 165.618C246.832 165.163 246.29 164.936 245.556 164.936C245.146 164.936 244.742 165.046 244.346 165.266C243.965 165.486 243.642 165.86 243.378 166.388C243.129 166.916 243.004 167.649 243.004 168.588C243.004 169.439 243.151 170.135 243.444 170.678C243.738 171.206 244.126 171.602 244.61 171.866C245.094 172.115 245.615 172.24 246.172 172.24C246.642 172.24 247.082 172.174 247.492 172.042C247.918 171.91 248.314 171.727 248.68 171.492L249.56 173.12C249.062 173.472 248.49 173.751 247.844 173.956C247.214 174.161 246.554 174.264 245.864 174.264ZM252.373 174V163.198H254.463L254.639 164.672H254.727C255.181 164.188 255.673 163.777 256.201 163.44C256.743 163.103 257.352 162.934 258.027 162.934C258.833 162.934 259.471 163.103 259.941 163.44C260.41 163.777 260.769 164.254 261.019 164.87C261.532 164.313 262.067 163.851 262.625 163.484C263.182 163.117 263.805 162.934 264.495 162.934C265.639 162.934 266.482 163.308 267.025 164.056C267.567 164.804 267.839 165.86 267.839 167.224V174H265.287V167.554C265.287 166.659 265.155 166.029 264.891 165.662C264.627 165.295 264.209 165.112 263.637 165.112C263.285 165.112 262.925 165.222 262.559 165.442C262.192 165.662 261.796 165.999 261.371 166.454V174H258.841V167.554C258.841 166.659 258.701 166.029 258.423 165.662C258.159 165.295 257.741 165.112 257.169 165.112C256.494 165.112 255.739 165.559 254.903 166.454V174H252.373ZM274.126 174.264C272.967 174.264 272.124 173.89 271.596 173.142C271.068 172.394 270.804 171.338 270.804 169.974V163.198H273.334V169.644C273.334 170.539 273.466 171.169 273.73 171.536C273.994 171.903 274.419 172.086 275.006 172.086C275.475 172.086 275.886 171.969 276.238 171.734C276.604 171.499 276.993 171.118 277.404 170.59V163.198H279.934V174H277.866L277.668 172.416H277.602C277.132 172.973 276.619 173.421 276.062 173.758C275.504 174.095 274.859 174.264 274.126 174.264ZM283.138 174V158.468H285.646V168.148H285.712L289.672 163.198H292.466L288.792 167.62L292.84 174H290.09L287.318 169.314L285.646 171.228V174H283.138ZM297.036 174.264C296.405 174.264 295.848 174.132 295.364 173.868C294.88 173.604 294.498 173.237 294.22 172.768C293.956 172.284 293.824 171.727 293.824 171.096C293.824 169.879 294.33 168.962 295.342 168.346C296.368 167.715 297.989 167.283 300.204 167.048C300.189 166.681 300.116 166.344 299.984 166.036C299.866 165.728 299.661 165.486 299.368 165.31C299.089 165.119 298.708 165.024 298.224 165.024C297.696 165.024 297.175 165.119 296.662 165.31C296.163 165.501 295.672 165.743 295.188 166.036L294.264 164.32C294.66 164.071 295.092 163.843 295.562 163.638C296.031 163.418 296.53 163.249 297.058 163.132C297.586 163 298.136 162.934 298.708 162.934C299.602 162.934 300.343 163.117 300.93 163.484C301.531 163.836 301.978 164.364 302.272 165.068C302.58 165.757 302.734 166.608 302.734 167.62V174H300.644L300.468 172.812H300.38C299.881 173.223 299.36 173.567 298.818 173.846C298.275 174.125 297.681 174.264 297.036 174.264ZM297.828 172.196C298.268 172.196 298.671 172.108 299.038 171.932C299.419 171.741 299.808 171.463 300.204 171.096V168.808C299.221 168.925 298.444 169.079 297.872 169.27C297.3 169.461 296.889 169.695 296.64 169.974C296.405 170.238 296.288 170.553 296.288 170.92C296.288 171.375 296.434 171.705 296.728 171.91C297.021 172.101 297.388 172.196 297.828 172.196ZM305.761 174V163.198H307.851L308.027 164.65H308.115C308.599 164.181 309.127 163.777 309.699 163.44C310.271 163.103 310.924 162.934 311.657 162.934C312.816 162.934 313.659 163.308 314.187 164.056C314.715 164.804 314.979 165.86 314.979 167.224V174H312.449V167.554C312.449 166.659 312.317 166.029 312.053 165.662C311.789 165.295 311.357 165.112 310.755 165.112C310.286 165.112 309.868 165.229 309.501 165.464C309.149 165.684 308.746 166.014 308.291 166.454V174H305.761Z" fill="#212426"/>
<path d="M32.7838 204V193.504H34.1118V198.768H34.1598L38.5278 193.504H40.0318L36.7518 197.504L40.5438 204H39.0558L35.9198 198.544L34.1118 200.672V204H32.7838ZM43.7134 204.192C43.2867 204.192 42.8974 204.107 42.5454 203.936C42.204 203.755 41.932 203.504 41.7294 203.184C41.5267 202.853 41.4254 202.453 41.4254 201.984C41.4254 201.109 41.8094 200.448 42.5774 200C43.3454 199.552 44.5614 199.237 46.2254 199.056C46.2147 198.736 46.1614 198.427 46.0654 198.128C45.98 197.829 45.82 197.589 45.5854 197.408C45.3507 197.227 45.0254 197.136 44.6094 197.136C44.1614 197.136 43.74 197.221 43.3454 197.392C42.9507 197.552 42.5987 197.733 42.2894 197.936L41.7774 197.04C42.012 196.88 42.2894 196.725 42.6094 196.576C42.9294 196.416 43.276 196.288 43.6494 196.192C44.0227 196.085 44.4174 196.032 44.8334 196.032C45.4627 196.032 45.9747 196.165 46.3694 196.432C46.7747 196.688 47.068 197.056 47.2494 197.536C47.4414 198.016 47.5374 198.581 47.5374 199.232V204H46.4494L46.3374 203.072H46.2894C45.916 203.381 45.516 203.648 45.0894 203.872C44.6627 204.085 44.204 204.192 43.7134 204.192ZM44.0814 203.104C44.4654 203.104 44.8227 203.019 45.1534 202.848C45.4947 202.677 45.852 202.427 46.2254 202.096V200C45.3507 200.107 44.6574 200.245 44.1454 200.416C43.644 200.576 43.2814 200.779 43.0574 201.024C42.8334 201.269 42.7214 201.563 42.7214 201.904C42.7214 202.331 42.8547 202.64 43.1214 202.832C43.388 203.013 43.708 203.104 44.0814 203.104ZM49.9839 204V196.224H51.0719L51.1839 197.344H51.2319C51.5732 196.981 51.9412 196.672 52.3359 196.416C52.7412 196.16 53.1785 196.032 53.6479 196.032C54.2452 196.032 54.7092 196.165 55.0399 196.432C55.3812 196.699 55.6319 197.061 55.7919 197.52C56.1972 197.072 56.6079 196.715 57.0239 196.448C57.4399 196.171 57.8825 196.032 58.3519 196.032C59.1625 196.032 59.7599 196.293 60.1439 196.816C60.5279 197.328 60.7199 198.08 60.7199 199.072V204H59.4079V199.248C59.4079 198.512 59.2905 197.984 59.0559 197.664C58.8212 197.333 58.4585 197.168 57.9679 197.168C57.6585 197.168 57.3439 197.269 57.0239 197.472C56.7145 197.664 56.3785 197.963 56.0159 198.368V204H54.7039V199.248C54.7039 198.512 54.5865 197.984 54.3519 197.664C54.1172 197.333 53.7492 197.168 53.2479 197.168C52.6612 197.168 52.0105 197.568 51.2959 198.368V204H49.9839ZM63.2495 204V196.224H64.5615V204H63.2495ZM63.9055 194.624C63.6495 194.624 63.4362 194.544 63.2655 194.384C63.1055 194.224 63.0255 194.016 63.0255 193.76C63.0255 193.504 63.1055 193.296 63.2655 193.136C63.4362 192.976 63.6495 192.896 63.9055 192.896C64.1615 192.896 64.3695 192.976 64.5295 193.136C64.7002 193.296 64.7855 193.504 64.7855 193.76C64.7855 194.016 64.7002 194.224 64.5295 194.384C64.3695 194.544 64.1615 194.624 63.9055 194.624ZM72.8381 204.144C72.0168 204.144 71.4408 203.904 71.1101 203.424C70.7795 202.944 70.6141 202.32 70.6141 201.552V197.296H69.4621V196.304L70.6781 196.224L70.8381 193.728H71.9421V196.224H74.0541V197.296H71.9421V201.568C71.9421 202.037 72.0275 202.405 72.1981 202.672C72.3795 202.939 72.6941 203.072 73.1421 203.072C73.2808 203.072 73.4248 203.061 73.5741 203.04C73.7235 203.008 73.8728 202.955 74.0221 202.88L74.3101 203.808C74.1075 203.904 73.8781 203.984 73.6221 204.048C73.3661 204.112 73.1048 204.144 72.8381 204.144ZM75.7964 204V196.224H77.1084V204H75.7964ZM76.4524 194.624C76.1964 194.624 75.983 194.544 75.8124 194.384C75.6524 194.224 75.5724 194.016 75.5724 193.76C75.5724 193.504 75.6524 193.296 75.8124 193.136C75.983 192.976 76.1964 192.896 76.4524 192.896C76.7084 192.896 76.9164 192.976 77.0764 193.136C77.247 193.296 77.3324 193.504 77.3324 193.76C77.3324 194.016 77.247 194.224 77.0764 194.384C76.9164 194.544 76.7084 194.624 76.4524 194.624ZM82.3899 204.192C81.4085 204.192 80.6245 203.84 80.0379 203.136C79.4619 202.421 79.1739 201.419 79.1739 200.128C79.1739 199.285 79.3285 198.56 79.6379 197.952C79.9579 197.333 80.3739 196.859 80.8859 196.528C81.3979 196.197 81.9525 196.032 82.5499 196.032C83.0085 196.032 83.3979 196.112 83.7179 196.272C84.0485 196.421 84.3845 196.64 84.7259 196.928L84.6619 195.6V192.608H85.9899V204H84.9019L84.7899 203.088H84.7419C84.4432 203.387 84.0912 203.648 83.6859 203.872C83.2805 204.085 82.8485 204.192 82.3899 204.192ZM82.6779 203.088C83.0405 203.088 83.3819 202.997 83.7019 202.816C84.0219 202.635 84.3419 202.368 84.6619 202.016V197.952C84.3419 197.653 84.0272 197.445 83.7179 197.328C83.4085 197.2 83.0939 197.136 82.7739 197.136C82.3579 197.136 81.9792 197.264 81.6379 197.52C81.3072 197.765 81.0405 198.112 80.8379 198.56C80.6352 198.997 80.5339 199.515 80.5339 200.112C80.5339 201.04 80.7205 201.771 81.0939 202.304C81.4672 202.827 81.9952 203.088 82.6779 203.088ZM90.4009 204.192C89.9742 204.192 89.5849 204.107 89.2329 203.936C88.8915 203.755 88.6195 203.504 88.4169 203.184C88.2142 202.853 88.1129 202.453 88.1129 201.984C88.1129 201.109 88.4969 200.448 89.2649 200C90.0329 199.552 91.2489 199.237 92.9129 199.056C92.9022 198.736 92.8489 198.427 92.7529 198.128C92.6675 197.829 92.5075 197.589 92.2729 197.408C92.0382 197.227 91.7129 197.136 91.2969 197.136C90.8489 197.136 90.4275 197.221 90.0329 197.392C89.6382 197.552 89.2862 197.733 88.9769 197.936L88.4649 197.04C88.6995 196.88 88.9769 196.725 89.2969 196.576C89.6169 196.416 89.9635 196.288 90.3369 196.192C90.7102 196.085 91.1049 196.032 91.5209 196.032C92.1502 196.032 92.6622 196.165 93.0569 196.432C93.4622 196.688 93.7555 197.056 93.9369 197.536C94.1289 198.016 94.2249 198.581 94.2249 199.232V204H93.1369L93.0249 203.072H92.9769C92.6035 203.381 92.2035 203.648 91.7769 203.872C91.3502 204.085 90.8915 204.192 90.4009 204.192ZM90.7689 203.104C91.1529 203.104 91.5102 203.019 91.8409 202.848C92.1822 202.677 92.5395 202.427 92.9129 202.096V200C92.0382 200.107 91.3449 200.245 90.8329 200.416C90.3315 200.576 89.9689 200.779 89.7449 201.024C89.5209 201.269 89.4089 201.563 89.4089 201.904C89.4089 202.331 89.5422 202.64 89.8089 202.832C90.0755 203.013 90.3955 203.104 90.7689 203.104ZM96.6714 204V192.608H97.9834V200.304H98.0154L101.311 196.224H102.783L100.191 199.36L103.135 204H101.695L99.4234 200.256L97.9834 201.952V204H96.6714ZM107.796 204V196.224H108.884L108.996 197.344H109.044C109.386 196.981 109.754 196.672 110.148 196.416C110.554 196.16 110.991 196.032 111.46 196.032C112.058 196.032 112.522 196.165 112.852 196.432C113.194 196.699 113.444 197.061 113.604 197.52C114.01 197.072 114.42 196.715 114.836 196.448C115.252 196.171 115.695 196.032 116.164 196.032C116.975 196.032 117.572 196.293 117.956 196.816C118.34 197.328 118.532 198.08 118.532 199.072V204H117.22V199.248C117.22 198.512 117.103 197.984 116.868 197.664C116.634 197.333 116.271 197.168 115.78 197.168C115.471 197.168 115.156 197.269 114.836 197.472C114.527 197.664 114.191 197.963 113.828 198.368V204H112.516V199.248C112.516 198.512 112.399 197.984 112.164 197.664C111.93 197.333 111.562 197.168 111.06 197.168C110.474 197.168 109.823 197.568 109.108 198.368V204H107.796ZM124.214 204.192C123.521 204.192 122.886 204.032 122.31 203.712C121.745 203.381 121.297 202.917 120.966 202.32C120.635 201.712 120.47 200.976 120.47 200.112C120.47 199.269 120.641 198.544 120.982 197.936C121.323 197.328 121.761 196.859 122.294 196.528C122.827 196.197 123.393 196.032 123.99 196.032C124.651 196.032 125.211 196.187 125.67 196.496C126.139 196.795 126.491 197.216 126.726 197.76C126.961 198.304 127.078 198.944 127.078 199.68C127.078 199.819 127.073 199.952 127.062 200.08C127.062 200.208 127.046 200.336 127.014 200.464H121.414V199.424H125.894C125.894 198.677 125.729 198.107 125.398 197.712C125.078 197.307 124.614 197.104 124.006 197.104C123.654 197.104 123.307 197.205 122.966 197.408C122.625 197.6 122.342 197.915 122.118 198.352C121.905 198.789 121.798 199.371 121.798 200.096C121.798 200.757 121.91 201.312 122.134 201.76C122.369 202.208 122.683 202.549 123.078 202.784C123.473 203.008 123.905 203.12 124.374 203.12C124.747 203.12 125.094 203.067 125.414 202.96C125.745 202.853 126.043 202.709 126.31 202.528L126.79 203.392C126.449 203.627 126.065 203.819 125.638 203.968C125.222 204.117 124.747 204.192 124.214 204.192ZM129 204V196.224H130.088L130.2 197.344H130.248C130.621 196.971 131.016 196.661 131.432 196.416C131.848 196.16 132.322 196.032 132.856 196.032C133.677 196.032 134.274 196.293 134.648 196.816C135.032 197.328 135.224 198.08 135.224 199.072V204H133.912V199.248C133.912 198.512 133.794 197.984 133.56 197.664C133.336 197.333 132.962 197.168 132.44 197.168C132.045 197.168 131.688 197.269 131.368 197.472C131.058 197.675 130.706 197.973 130.312 198.368V204H129ZM140.902 204.192C140.208 204.192 139.574 204.032 138.998 203.712C138.432 203.381 137.984 202.917 137.654 202.32C137.323 201.712 137.158 200.976 137.158 200.112C137.158 199.269 137.328 198.544 137.67 197.936C138.011 197.328 138.448 196.859 138.982 196.528C139.515 196.197 140.08 196.032 140.678 196.032C141.339 196.032 141.899 196.187 142.358 196.496C142.827 196.795 143.179 197.216 143.414 197.76C143.648 198.304 143.766 198.944 143.766 199.68C143.766 199.819 143.76 199.952 143.75 200.08C143.75 200.208 143.734 200.336 143.702 200.464H138.102V199.424H142.582C142.582 198.677 142.416 198.107 142.086 197.712C141.766 197.307 141.302 197.104 140.694 197.104C140.342 197.104 139.995 197.205 139.654 197.408C139.312 197.6 139.03 197.915 138.806 198.352C138.592 198.789 138.486 199.371 138.486 200.096C138.486 200.757 138.598 201.312 138.822 201.76C139.056 202.208 139.371 202.549 139.766 202.784C140.16 203.008 140.592 203.12 141.062 203.12C141.435 203.12 141.782 203.067 142.102 202.96C142.432 202.853 142.731 202.709 142.998 202.528L143.478 203.392C143.136 203.627 142.752 203.819 142.326 203.968C141.91 204.117 141.435 204.192 140.902 204.192ZM145.687 204V196.224H146.775L146.887 197.344H146.935C147.276 196.981 147.644 196.672 148.039 196.416C148.444 196.16 148.882 196.032 149.351 196.032C149.948 196.032 150.412 196.165 150.743 196.432C151.084 196.699 151.335 197.061 151.495 197.52C151.9 197.072 152.311 196.715 152.727 196.448C153.143 196.171 153.586 196.032 154.055 196.032C154.866 196.032 155.463 196.293 155.847 196.816C156.231 197.328 156.423 198.08 156.423 199.072V204H155.111V199.248C155.111 198.512 154.994 197.984 154.759 197.664C154.524 197.333 154.162 197.168 153.671 197.168C153.362 197.168 153.047 197.269 152.727 197.472C152.418 197.664 152.082 197.963 151.719 198.368V204H150.407V199.248C150.407 198.512 150.29 197.984 150.055 197.664C149.82 197.333 149.452 197.168 148.951 197.168C148.364 197.168 147.714 197.568 146.999 198.368V204H145.687ZM161.225 204.192C160.403 204.192 159.801 203.936 159.417 203.424C159.043 202.901 158.857 202.144 158.857 201.152V196.224H160.169V200.976C160.169 201.701 160.281 202.229 160.505 202.56C160.739 202.88 161.113 203.04 161.625 203.04C162.019 203.04 162.371 202.939 162.681 202.736C163.001 202.523 163.347 202.192 163.721 201.744V196.224H165.033V204H163.945L163.833 202.784H163.785C163.433 203.211 163.049 203.552 162.633 203.808C162.227 204.064 161.758 204.192 161.225 204.192ZM167.656 204V192.608H168.968V200.304H169L172.296 196.224H173.768L171.176 199.36L174.12 204H172.68L170.408 200.256L168.968 201.952V204H167.656ZM177.213 204.192C176.787 204.192 176.397 204.107 176.045 203.936C175.704 203.755 175.432 203.504 175.229 203.184C175.027 202.853 174.925 202.453 174.925 201.984C174.925 201.109 175.309 200.448 176.077 200C176.845 199.552 178.061 199.237 179.725 199.056C179.715 198.736 179.661 198.427 179.565 198.128C179.48 197.829 179.32 197.589 179.085 197.408C178.851 197.227 178.525 197.136 178.109 197.136C177.661 197.136 177.24 197.221 176.845 197.392C176.451 197.552 176.099 197.733 175.789 197.936L175.277 197.04C175.512 196.88 175.789 196.725 176.109 196.576C176.429 196.416 176.776 196.288 177.149 196.192C177.523 196.085 177.917 196.032 178.333 196.032C178.963 196.032 179.475 196.165 179.869 196.432C180.275 196.688 180.568 197.056 180.749 197.536C180.941 198.016 181.037 198.581 181.037 199.232V204H179.949L179.837 203.072H179.789C179.416 203.381 179.016 203.648 178.589 203.872C178.163 204.085 177.704 204.192 177.213 204.192ZM177.581 203.104C177.965 203.104 178.323 203.019 178.653 202.848C178.995 202.677 179.352 202.427 179.725 202.096V200C178.851 200.107 178.157 200.245 177.645 200.416C177.144 200.576 176.781 200.779 176.557 201.024C176.333 201.269 176.221 201.563 176.221 201.904C176.221 202.331 176.355 202.64 176.621 202.832C176.888 203.013 177.208 203.104 177.581 203.104ZM183.484 204V196.224H184.572L184.684 197.344H184.732C185.105 196.971 185.5 196.661 185.916 196.416C186.332 196.16 186.807 196.032 187.34 196.032C188.161 196.032 188.759 196.293 189.132 196.816C189.516 197.328 189.708 198.08 189.708 199.072V204H188.396V199.248C188.396 198.512 188.279 197.984 188.044 197.664C187.82 197.333 187.447 197.168 186.924 197.168C186.529 197.168 186.172 197.269 185.852 197.472C185.543 197.675 185.191 197.973 184.796 198.368V204H183.484ZM195.437 204V192.608H196.749V200.304H196.781L200.077 196.224H201.549L198.957 199.36L201.901 204H200.461L198.189 200.256L196.749 201.952V204H195.437ZM204.995 204.192C204.568 204.192 204.179 204.107 203.827 203.936C203.485 203.755 203.213 203.504 203.011 203.184C202.808 202.853 202.707 202.453 202.707 201.984C202.707 201.109 203.091 200.448 203.859 200C204.627 199.552 205.843 199.237 207.507 199.056C207.496 198.736 207.443 198.427 207.347 198.128C207.261 197.829 207.101 197.589 206.867 197.408C206.632 197.227 206.307 197.136 205.891 197.136C205.443 197.136 205.021 197.221 204.627 197.392C204.232 197.552 203.88 197.733 203.571 197.936L203.059 197.04C203.293 196.88 203.571 196.725 203.891 196.576C204.211 196.416 204.557 196.288 204.931 196.192C205.304 196.085 205.699 196.032 206.115 196.032C206.744 196.032 207.256 196.165 207.651 196.432C208.056 196.688 208.349 197.056 208.531 197.536C208.723 198.016 208.819 198.581 208.819 199.232V204H207.731L207.619 203.072H207.571C207.197 203.381 206.797 203.648 206.371 203.872C205.944 204.085 205.485 204.192 204.995 204.192ZM205.363 203.104C205.747 203.104 206.104 203.019 206.435 202.848C206.776 202.677 207.133 202.427 207.507 202.096V200C206.632 200.107 205.939 200.245 205.427 200.416C204.925 200.576 204.563 200.779 204.339 201.024C204.115 201.269 204.003 201.563 204.003 201.904C204.003 202.331 204.136 202.64 204.403 202.832C204.669 203.013 204.989 203.104 205.363 203.104ZM213.494 204.144C212.673 204.144 212.097 203.904 211.766 203.424C211.436 202.944 211.27 202.32 211.27 201.552V197.296H210.118V196.304L211.334 196.224L211.494 193.728H212.598V196.224H214.71V197.296H212.598V201.568C212.598 202.037 212.684 202.405 212.854 202.672C213.036 202.939 213.35 203.072 213.798 203.072C213.937 203.072 214.081 203.061 214.23 203.04C214.38 203.008 214.529 202.955 214.678 202.88L214.966 203.808C214.764 203.904 214.534 203.984 214.278 204.048C214.022 204.112 213.761 204.144 213.494 204.144ZM217.901 204.192C217.474 204.192 217.085 204.107 216.733 203.936C216.392 203.755 216.12 203.504 215.917 203.184C215.714 202.853 215.613 202.453 215.613 201.984C215.613 201.109 215.997 200.448 216.765 200C217.533 199.552 218.749 199.237 220.413 199.056C220.402 198.736 220.349 198.427 220.253 198.128C220.168 197.829 220.008 197.589 219.773 197.408C219.538 197.227 219.213 197.136 218.797 197.136C218.349 197.136 217.928 197.221 217.533 197.392C217.138 197.552 216.786 197.733 216.477 197.936L215.965 197.04C216.2 196.88 216.477 196.725 216.797 196.576C217.117 196.416 217.464 196.288 217.837 196.192C218.21 196.085 218.605 196.032 219.021 196.032C219.65 196.032 220.162 196.165 220.557 196.432C220.962 196.688 221.256 197.056 221.437 197.536C221.629 198.016 221.725 198.581 221.725 199.232V204H220.637L220.525 203.072H220.477C220.104 203.381 219.704 203.648 219.277 203.872C218.85 204.085 218.392 204.192 217.901 204.192ZM218.269 203.104C218.653 203.104 219.01 203.019 219.341 202.848C219.682 202.677 220.04 202.427 220.413 202.096V200C219.538 200.107 218.845 200.245 218.333 200.416C217.832 200.576 217.469 200.779 217.245 201.024C217.021 201.269 216.909 201.563 216.909 201.904C216.909 202.331 217.042 202.64 217.309 202.832C217.576 203.013 217.896 203.104 218.269 203.104ZM227.503 207.344C227.332 207.344 227.167 207.328 227.007 207.296C226.857 207.264 226.719 207.227 226.59 207.184L226.879 206.16C226.975 206.192 227.071 206.213 227.167 206.224C227.263 206.245 227.353 206.256 227.439 206.256C227.887 206.256 228.249 206.096 228.527 205.776C228.815 205.467 229.039 205.072 229.199 204.592L229.375 204.016L226.255 196.224H227.615L229.199 200.528C229.327 200.859 229.455 201.216 229.583 201.6C229.711 201.984 229.833 202.357 229.951 202.72H230.015C230.132 202.357 230.244 201.989 230.351 201.616C230.468 201.232 230.575 200.869 230.671 200.528L232.063 196.224H233.343L230.415 204.64C230.233 205.152 230.015 205.611 229.759 206.016C229.503 206.432 229.193 206.757 228.831 206.992C228.468 207.227 228.025 207.344 227.503 207.344ZM236.323 204.192C235.896 204.192 235.507 204.107 235.155 203.936C234.813 203.755 234.541 203.504 234.339 203.184C234.136 202.853 234.035 202.453 234.035 201.984C234.035 201.109 234.419 200.448 235.187 200C235.955 199.552 237.171 199.237 238.835 199.056C238.824 198.736 238.771 198.427 238.675 198.128C238.589 197.829 238.429 197.589 238.195 197.408C237.96 197.227 237.635 197.136 237.219 197.136C236.771 197.136 236.349 197.221 235.955 197.392C235.56 197.552 235.208 197.733 234.899 197.936L234.387 197.04C234.621 196.88 234.899 196.725 235.219 196.576C235.539 196.416 235.885 196.288 236.259 196.192C236.632 196.085 237.027 196.032 237.443 196.032C238.072 196.032 238.584 196.165 238.979 196.432C239.384 196.688 239.677 197.056 239.859 197.536C240.051 198.016 240.147 198.581 240.147 199.232V204H239.059L238.947 203.072H238.899C238.525 203.381 238.125 203.648 237.699 203.872C237.272 204.085 236.813 204.192 236.323 204.192ZM236.691 203.104C237.075 203.104 237.432 203.019 237.763 202.848C238.104 202.677 238.461 202.427 238.835 202.096V200C237.96 200.107 237.267 200.245 236.755 200.416C236.253 200.576 235.891 200.779 235.667 201.024C235.443 201.269 235.331 201.563 235.331 201.904C235.331 202.331 235.464 202.64 235.731 202.832C235.997 203.013 236.317 203.104 236.691 203.104ZM242.593 204V196.224H243.681L243.793 197.344H243.841C244.215 196.971 244.609 196.661 245.025 196.416C245.441 196.16 245.916 196.032 246.449 196.032C247.271 196.032 247.868 196.293 248.241 196.816C248.625 197.328 248.817 198.08 248.817 199.072V204H247.505V199.248C247.505 198.512 247.388 197.984 247.153 197.664C246.929 197.333 246.556 197.168 246.033 197.168C245.639 197.168 245.281 197.269 244.961 197.472C244.652 197.675 244.3 197.973 243.905 198.368V204H242.593ZM253.967 207.584C253.338 207.584 252.778 207.499 252.287 207.328C251.807 207.168 251.429 206.933 251.151 206.624C250.885 206.315 250.751 205.936 250.751 205.488C250.751 205.157 250.853 204.837 251.055 204.528C251.258 204.229 251.535 203.963 251.887 203.728V203.664C251.695 203.536 251.53 203.371 251.391 203.168C251.263 202.955 251.199 202.699 251.199 202.4C251.199 202.069 251.29 201.781 251.471 201.536C251.663 201.291 251.855 201.099 252.047 200.96V200.896C251.802 200.683 251.573 200.395 251.359 200.032C251.146 199.669 251.039 199.259 251.039 198.8C251.039 198.235 251.173 197.744 251.439 197.328C251.717 196.912 252.074 196.592 252.511 196.368C252.959 196.144 253.445 196.032 253.967 196.032C254.181 196.032 254.383 196.053 254.575 196.096C254.767 196.128 254.933 196.171 255.071 196.224H257.775V197.232H256.159V197.296C256.351 197.467 256.506 197.68 256.623 197.936C256.751 198.192 256.815 198.496 256.815 198.848C256.815 199.403 256.687 199.883 256.431 200.288C256.175 200.683 255.834 200.992 255.407 201.216C254.981 201.429 254.501 201.536 253.967 201.536C253.775 201.536 253.578 201.515 253.375 201.472C253.173 201.419 252.981 201.349 252.799 201.264C252.671 201.381 252.554 201.509 252.447 201.648C252.351 201.787 252.303 201.968 252.303 202.192C252.303 202.437 252.399 202.64 252.591 202.8C252.794 202.96 253.157 203.04 253.679 203.04H255.183C256.09 203.04 256.767 203.189 257.215 203.488C257.674 203.776 257.903 204.245 257.903 204.896C257.903 205.376 257.743 205.819 257.423 206.224C257.103 206.629 256.645 206.955 256.047 207.2C255.461 207.456 254.767 207.584 253.967 207.584ZM253.967 200.656C254.266 200.656 254.538 200.581 254.783 200.432C255.039 200.272 255.242 200.053 255.391 199.776C255.541 199.499 255.615 199.173 255.615 198.8C255.615 198.224 255.455 197.781 255.135 197.472C254.815 197.152 254.426 196.992 253.967 196.992C253.509 196.992 253.119 197.152 252.799 197.472C252.479 197.781 252.319 198.224 252.319 198.8C252.319 199.173 252.394 199.499 252.543 199.776C252.693 200.053 252.89 200.272 253.135 200.432C253.391 200.581 253.669 200.656 253.967 200.656ZM254.159 206.672C254.65 206.672 255.077 206.597 255.439 206.448C255.813 206.299 256.101 206.101 256.303 205.856C256.517 205.611 256.623 205.355 256.623 205.088C256.623 204.725 256.485 204.475 256.207 204.336C255.941 204.197 255.557 204.128 255.055 204.128H253.711C253.562 204.128 253.397 204.117 253.215 204.096C253.045 204.075 252.874 204.043 252.703 204C252.415 204.203 252.207 204.416 252.079 204.64C251.962 204.864 251.903 205.088 251.903 205.312C251.903 205.728 252.101 206.059 252.495 206.304C252.901 206.549 253.455 206.672 254.159 206.672ZM261.345 204L264.897 193.504H266.401L269.953 204H268.545L266.705 198.128C266.513 197.541 266.332 196.96 266.161 196.384C265.99 195.797 265.82 195.2 265.649 194.592H265.585C265.425 195.2 265.26 195.797 265.089 196.384C264.918 196.96 264.737 197.541 264.545 198.128L262.689 204H261.345ZM263.201 200.8V199.744H268.049V200.8H263.201ZM271.296 204V196.224H272.384L272.496 197.344H272.544C272.918 196.971 273.312 196.661 273.728 196.416C274.144 196.16 274.619 196.032 275.152 196.032C275.974 196.032 276.571 196.293 276.944 196.816C277.328 197.328 277.52 198.08 277.52 199.072V204H276.208V199.248C276.208 198.512 276.091 197.984 275.856 197.664C275.632 197.333 275.259 197.168 274.736 197.168C274.342 197.168 273.984 197.269 273.664 197.472C273.355 197.675 273.003 197.973 272.608 198.368V204H271.296ZM282.702 204.192C281.721 204.192 280.937 203.84 280.35 203.136C279.774 202.421 279.486 201.419 279.486 200.128C279.486 199.285 279.641 198.56 279.95 197.952C280.27 197.333 280.686 196.859 281.198 196.528C281.71 196.197 282.265 196.032 282.862 196.032C283.321 196.032 283.71 196.112 284.03 196.272C284.361 196.421 284.697 196.64 285.038 196.928L284.974 195.6V192.608H286.302V204H285.214L285.102 203.088H285.054C284.756 203.387 284.404 203.648 283.998 203.872C283.593 204.085 283.161 204.192 282.702 204.192ZM282.99 203.088C283.353 203.088 283.694 202.997 284.014 202.816C284.334 202.635 284.654 202.368 284.974 202.016V197.952C284.654 197.653 284.34 197.445 284.03 197.328C283.721 197.2 283.406 197.136 283.086 197.136C282.67 197.136 282.292 197.264 281.95 197.52C281.62 197.765 281.353 198.112 281.15 198.56C280.948 198.997 280.846 199.515 280.846 200.112C280.846 201.04 281.033 201.771 281.406 202.304C281.78 202.827 282.308 203.088 282.99 203.088ZM290.713 204.192C290.287 204.192 289.897 204.107 289.545 203.936C289.204 203.755 288.932 203.504 288.729 203.184C288.527 202.853 288.425 202.453 288.425 201.984C288.425 201.109 288.809 200.448 289.577 200C290.345 199.552 291.561 199.237 293.225 199.056C293.215 198.736 293.161 198.427 293.065 198.128C292.98 197.829 292.82 197.589 292.585 197.408C292.351 197.227 292.025 197.136 291.609 197.136C291.161 197.136 290.74 197.221 290.345 197.392C289.951 197.552 289.599 197.733 289.289 197.936L288.777 197.04C289.012 196.88 289.289 196.725 289.609 196.576C289.929 196.416 290.276 196.288 290.649 196.192C291.023 196.085 291.417 196.032 291.833 196.032C292.463 196.032 292.975 196.165 293.369 196.432C293.775 196.688 294.068 197.056 294.249 197.536C294.441 198.016 294.537 198.581 294.537 199.232V204H293.449L293.337 203.072H293.289C292.916 203.381 292.516 203.648 292.089 203.872C291.663 204.085 291.204 204.192 290.713 204.192ZM291.081 203.104C291.465 203.104 291.823 203.019 292.153 202.848C292.495 202.677 292.852 202.427 293.225 202.096V200C292.351 200.107 291.657 200.245 291.145 200.416C290.644 200.576 290.281 200.779 290.057 201.024C289.833 201.269 289.721 201.563 289.721 201.904C289.721 202.331 289.855 202.64 290.121 202.832C290.388 203.013 290.708 203.104 291.081 203.104ZM303.275 204.192C302.582 204.192 301.958 204.032 301.403 203.712C300.848 203.392 300.411 202.928 300.091 202.32C299.771 201.712 299.611 200.981 299.611 200.128C299.611 199.253 299.782 198.512 300.123 197.904C300.475 197.296 300.934 196.832 301.499 196.512C302.075 196.192 302.694 196.032 303.355 196.032C303.867 196.032 304.304 196.117 304.667 196.288C305.04 196.459 305.36 196.677 305.627 196.944L304.971 197.76C304.779 197.568 304.55 197.419 304.283 197.312C304.027 197.195 303.734 197.136 303.403 197.136C302.944 197.136 302.528 197.264 302.155 197.52C301.792 197.765 301.504 198.112 301.291 198.56C301.078 199.008 300.971 199.531 300.971 200.128C300.971 200.715 301.072 201.232 301.275 201.68C301.478 202.128 301.76 202.48 302.123 202.736C302.486 202.981 302.907 203.104 303.387 203.104C303.75 203.104 304.086 203.035 304.395 202.896C304.704 202.757 304.971 202.581 305.195 202.368L305.771 203.168C305.44 203.477 305.067 203.728 304.651 203.92C304.235 204.101 303.776 204.192 303.275 204.192ZM309.12 204.192C308.693 204.192 308.304 204.107 307.952 203.936C307.61 203.755 307.338 203.504 307.136 203.184C306.933 202.853 306.832 202.453 306.832 201.984C306.832 201.109 307.216 200.448 307.984 200C308.752 199.552 309.968 199.237 311.632 199.056C311.621 198.736 311.568 198.427 311.472 198.128C311.386 197.829 311.226 197.589 310.992 197.408C310.757 197.227 310.432 197.136 310.016 197.136C309.568 197.136 309.146 197.221 308.752 197.392C308.357 197.552 308.005 197.733 307.696 197.936L307.184 197.04C307.418 196.88 307.696 196.725 308.016 196.576C308.336 196.416 308.682 196.288 309.056 196.192C309.429 196.085 309.824 196.032 310.24 196.032C310.869 196.032 311.381 196.165 311.776 196.432C312.181 196.688 312.474 197.056 312.656 197.536C312.848 198.016 312.944 198.581 312.944 199.232V204H311.856L311.744 203.072H311.696C311.322 203.381 310.922 203.648 310.496 203.872C310.069 204.085 309.61 204.192 309.12 204.192ZM309.488 203.104C309.872 203.104 310.229 203.019 310.56 202.848C310.901 202.677 311.258 202.427 311.632 202.096V200C310.757 200.107 310.064 200.245 309.552 200.416C309.05 200.576 308.688 200.779 308.464 201.024C308.24 201.269 308.128 201.563 308.128 201.904C308.128 202.331 308.261 202.64 308.528 202.832C308.794 203.013 309.114 203.104 309.488 203.104ZM315.39 204V196.224H316.478L316.59 197.632H316.638C316.894 197.141 317.214 196.752 317.598 196.464C317.982 196.176 318.398 196.032 318.846 196.032C319.017 196.032 319.166 196.043 319.294 196.064C319.422 196.085 319.55 196.128 319.678 196.192L319.39 197.312C319.273 197.28 319.161 197.259 319.054 197.248C318.958 197.227 318.83 197.216 318.67 197.216C318.339 197.216 317.993 197.349 317.63 197.616C317.278 197.883 316.969 198.347 316.702 199.008V204H315.39ZM320.937 204V196.224H322.249V204H320.937ZM321.593 194.624C321.337 194.624 321.124 194.544 320.953 194.384C320.793 194.224 320.713 194.016 320.713 193.76C320.713 193.504 320.793 193.296 320.953 193.136C321.124 192.976 321.337 192.896 321.593 192.896C321.849 192.896 322.057 192.976 322.217 193.136C322.388 193.296 322.473 193.504 322.473 193.76C322.473 194.016 322.388 194.224 322.217 194.384C322.057 194.544 321.849 194.624 321.593 194.624ZM325.562 204.192C325.307 204.192 325.083 204.101 324.891 203.92C324.699 203.728 324.603 203.488 324.603 203.2C324.603 202.891 324.699 202.645 324.891 202.464C325.083 202.272 325.307 202.176 325.562 202.176C325.829 202.176 326.053 202.272 326.235 202.464C326.416 202.645 326.507 202.891 326.507 203.2C326.507 203.488 326.416 203.728 326.235 203.92C326.053 204.101 325.829 204.192 325.562 204.192ZM335.102 204.192C334.355 204.192 333.673 204.053 333.054 203.776C332.435 203.488 331.891 203.104 331.422 202.624L332.174 201.76C332.547 202.155 332.99 202.464 333.502 202.688C334.025 202.912 334.563 203.024 335.118 203.024C335.811 203.024 336.35 202.869 336.734 202.56C337.118 202.24 337.31 201.824 337.31 201.312C337.31 200.949 337.23 200.661 337.07 200.448C336.921 200.235 336.713 200.053 336.446 199.904C336.19 199.755 335.897 199.605 335.566 199.456L334.062 198.8C333.721 198.651 333.385 198.464 333.054 198.24C332.734 198.016 332.467 197.733 332.254 197.392C332.041 197.04 331.934 196.608 331.934 196.096C331.934 195.563 332.073 195.088 332.35 194.672C332.638 194.245 333.027 193.915 333.518 193.68C334.019 193.435 334.59 193.312 335.23 193.312C335.87 193.312 336.457 193.429 336.99 193.664C337.523 193.899 337.971 194.203 338.334 194.576L337.614 195.44C337.283 195.152 336.921 194.923 336.526 194.752C336.131 194.571 335.699 194.48 335.23 194.48C334.643 194.48 334.169 194.619 333.806 194.896C333.454 195.173 333.278 195.547 333.278 196.016C333.278 196.347 333.363 196.619 333.534 196.832C333.705 197.045 333.923 197.221 334.19 197.36C334.467 197.499 334.745 197.632 335.022 197.76L336.51 198.4C336.926 198.581 337.294 198.789 337.614 199.024C337.945 199.259 338.201 199.552 338.382 199.904C338.574 200.256 338.67 200.688 338.67 201.2C338.67 201.755 338.526 202.261 338.238 202.72C337.961 203.168 337.55 203.525 337.006 203.792C336.473 204.059 335.838 204.192 335.102 204.192ZM340.609 204V196.224H341.921V204H340.609ZM341.265 194.624C341.009 194.624 340.796 194.544 340.625 194.384C340.465 194.224 340.385 194.016 340.385 193.76C340.385 193.504 340.465 193.296 340.625 193.136C340.796 192.976 341.009 192.896 341.265 192.896C341.521 192.896 341.729 192.976 341.889 193.136C342.06 193.296 342.145 193.504 342.145 193.76C342.145 194.016 342.06 194.224 341.889 194.384C341.729 194.544 341.521 194.624 341.265 194.624ZM345.938 204.144C345.608 204.144 345.341 204.08 345.138 203.952C344.936 203.813 344.786 203.616 344.69 203.36C344.594 203.093 344.546 202.773 344.546 202.4V192.608H345.858V202.496C345.858 202.709 345.896 202.859 345.97 202.944C346.045 203.019 346.136 203.056 346.242 203.056C346.285 203.056 346.322 203.056 346.354 203.056C346.397 203.045 346.45 203.035 346.514 203.024L346.706 204.016C346.61 204.048 346.498 204.075 346.37 204.096C346.253 204.128 346.109 204.144 345.938 204.144ZM350.417 204.192C349.99 204.192 349.601 204.107 349.249 203.936C348.907 203.755 348.635 203.504 348.433 203.184C348.23 202.853 348.129 202.453 348.129 201.984C348.129 201.109 348.513 200.448 349.281 200C350.049 199.552 351.265 199.237 352.929 199.056C352.918 198.736 352.865 198.427 352.769 198.128C352.683 197.829 352.523 197.589 352.289 197.408C352.054 197.227 351.729 197.136 351.312 197.136C350.865 197.136 350.443 197.221 350.049 197.392C349.654 197.552 349.302 197.733 348.993 197.936L348.481 197.04C348.715 196.88 348.993 196.725 349.312 196.576C349.633 196.416 349.979 196.288 350.353 196.192C350.726 196.085 351.121 196.032 351.536 196.032C352.166 196.032 352.678 196.165 353.073 196.432C353.478 196.688 353.771 197.056 353.953 197.536C354.145 198.016 354.241 198.581 354.241 199.232V204H353.153L353.041 203.072H352.993C352.619 203.381 352.219 203.648 351.793 203.872C351.366 204.085 350.907 204.192 350.417 204.192ZM350.785 203.104C351.169 203.104 351.526 203.019 351.857 202.848C352.198 202.677 352.555 202.427 352.929 202.096V200C352.054 200.107 351.361 200.245 350.849 200.416C350.347 200.576 349.985 200.779 349.761 201.024C349.537 201.269 349.424 201.563 349.424 201.904C349.424 202.331 349.558 202.64 349.825 202.832C350.091 203.013 350.411 203.104 350.785 203.104ZM356.687 204V192.608H357.999V195.712L357.951 197.312C358.324 196.96 358.714 196.661 359.119 196.416C359.535 196.16 360.01 196.032 360.543 196.032C361.364 196.032 361.962 196.293 362.335 196.816C362.719 197.328 362.911 198.08 362.911 199.072V204H361.599V199.248C361.599 198.512 361.482 197.984 361.247 197.664C361.023 197.333 360.65 197.168 360.127 197.168C359.732 197.168 359.375 197.269 359.055 197.472C358.746 197.675 358.394 197.973 357.999 198.368V204H356.687ZM365.39 204V192.608H366.702V200.304H366.734L370.03 196.224H371.502L368.91 199.36L371.854 204H370.414L368.142 200.256L366.702 201.952V204H365.39ZM374.948 204.192C374.521 204.192 374.132 204.107 373.78 203.936C373.438 203.755 373.166 203.504 372.964 203.184C372.761 202.853 372.66 202.453 372.66 201.984C372.66 201.109 373.044 200.448 373.812 200C374.58 199.552 375.796 199.237 377.46 199.056C377.449 198.736 377.396 198.427 377.3 198.128C377.214 197.829 377.054 197.589 376.82 197.408C376.585 197.227 376.26 197.136 375.844 197.136C375.396 197.136 374.974 197.221 374.58 197.392C374.185 197.552 373.833 197.733 373.524 197.936L373.012 197.04C373.246 196.88 373.524 196.725 373.844 196.576C374.164 196.416 374.51 196.288 374.884 196.192C375.257 196.085 375.652 196.032 376.068 196.032C376.697 196.032 377.209 196.165 377.604 196.432C378.009 196.688 378.302 197.056 378.484 197.536C378.676 198.016 378.772 198.581 378.772 199.232V204H377.684L377.572 203.072H377.524C377.15 203.381 376.75 203.648 376.324 203.872C375.897 204.085 375.438 204.192 374.948 204.192ZM375.316 203.104C375.7 203.104 376.057 203.019 376.388 202.848C376.729 202.677 377.086 202.427 377.46 202.096V200C376.585 200.107 375.892 200.245 375.38 200.416C374.878 200.576 374.516 200.779 374.292 201.024C374.068 201.269 373.956 201.563 373.956 201.904C373.956 202.331 374.089 202.64 374.356 202.832C374.622 203.013 374.942 203.104 375.316 203.104ZM381.218 204V196.224H382.306L382.418 197.344H382.466C382.84 196.971 383.234 196.661 383.65 196.416C384.066 196.16 384.541 196.032 385.074 196.032C385.896 196.032 386.493 196.293 386.866 196.816C387.25 197.328 387.442 198.08 387.442 199.072V204H386.13V199.248C386.13 198.512 386.013 197.984 385.778 197.664C385.554 197.333 385.181 197.168 384.658 197.168C384.264 197.168 383.906 197.269 383.586 197.472C383.277 197.675 382.925 197.973 382.53 198.368V204H381.218ZM102.15 228.192C101.457 228.192 100.833 228.032 100.278 227.712C99.7233 227.392 99.286 226.928 98.966 226.32C98.646 225.712 98.486 224.981 98.486 224.128C98.486 223.253 98.6567 222.512 98.998 221.904C99.35 221.296 99.8087 220.832 100.374 220.512C100.95 220.192 101.569 220.032 102.23 220.032C102.742 220.032 103.179 220.117 103.542 220.288C103.915 220.459 104.235 220.677 104.502 220.944L103.846 221.76C103.654 221.568 103.425 221.419 103.158 221.312C102.902 221.195 102.609 221.136 102.278 221.136C101.819 221.136 101.403 221.264 101.03 221.52C100.667 221.765 100.379 222.112 100.166 222.56C99.9527 223.008 99.846 223.531 99.846 224.128C99.846 224.715 99.9473 225.232 100.15 225.68C100.353 226.128 100.635 226.48 100.998 226.736C101.361 226.981 101.782 227.104 102.262 227.104C102.625 227.104 102.961 227.035 103.27 226.896C103.579 226.757 103.846 226.581 104.07 226.368L104.646 227.168C104.315 227.477 103.942 227.728 103.526 227.92C103.11 228.101 102.651 228.192 102.15 228.192ZM109.055 228.192C108.425 228.192 107.833 228.032 107.279 227.712C106.735 227.392 106.292 226.928 105.951 226.32C105.62 225.712 105.455 224.981 105.455 224.128C105.455 223.253 105.62 222.512 105.951 221.904C106.292 221.296 106.735 220.832 107.279 220.512C107.833 220.192 108.425 220.032 109.055 220.032C109.695 220.032 110.287 220.192 110.831 220.512C111.375 220.832 111.812 221.296 112.143 221.904C112.484 222.512 112.655 223.253 112.655 224.128C112.655 224.981 112.484 225.712 112.143 226.32C111.812 226.928 111.375 227.392 110.831 227.712C110.287 228.032 109.695 228.192 109.055 228.192ZM109.055 227.104C109.503 227.104 109.897 226.981 110.239 226.736C110.58 226.48 110.841 226.128 111.023 225.68C111.204 225.232 111.295 224.715 111.295 224.128C111.295 223.531 111.204 223.008 111.023 222.56C110.841 222.101 110.58 221.749 110.239 221.504C109.897 221.248 109.503 221.12 109.055 221.12C108.607 221.12 108.212 221.248 107.871 221.504C107.54 221.749 107.279 222.101 107.087 222.56C106.905 223.008 106.815 223.531 106.815 224.128C106.815 224.715 106.905 225.232 107.087 225.68C107.279 226.128 107.54 226.48 107.871 226.736C108.212 226.981 108.607 227.104 109.055 227.104ZM118.143 228.192C117.78 228.192 117.407 228.107 117.023 227.936C116.639 227.755 116.271 227.509 115.919 227.2H115.871L115.759 228H114.703V216.608H116.015V219.712L115.983 221.12C116.335 220.811 116.719 220.555 117.135 220.352C117.561 220.139 117.988 220.032 118.415 220.032C119.087 220.032 119.652 220.197 120.111 220.528C120.569 220.848 120.916 221.307 121.151 221.904C121.385 222.491 121.503 223.184 121.503 223.984C121.503 224.869 121.343 225.627 121.023 226.256C120.713 226.885 120.303 227.365 119.791 227.696C119.279 228.027 118.729 228.192 118.143 228.192ZM117.919 227.088C118.345 227.088 118.724 226.965 119.055 226.72C119.396 226.475 119.663 226.123 119.855 225.664C120.047 225.195 120.143 224.64 120.143 224C120.143 223.435 120.073 222.939 119.935 222.512C119.796 222.075 119.577 221.739 119.279 221.504C118.98 221.259 118.585 221.136 118.095 221.136C117.775 221.136 117.439 221.227 117.087 221.408C116.745 221.579 116.388 221.84 116.015 222.192V226.272C116.356 226.571 116.692 226.784 117.023 226.912C117.364 227.029 117.663 227.088 117.919 227.088ZM125.12 228.192C124.693 228.192 124.304 228.107 123.952 227.936C123.61 227.755 123.338 227.504 123.136 227.184C122.933 226.853 122.832 226.453 122.832 225.984C122.832 225.109 123.216 224.448 123.984 224C124.752 223.552 125.968 223.237 127.632 223.056C127.621 222.736 127.568 222.427 127.472 222.128C127.386 221.829 127.226 221.589 126.992 221.408C126.757 221.227 126.432 221.136 126.016 221.136C125.568 221.136 125.146 221.221 124.752 221.392C124.357 221.552 124.005 221.733 123.696 221.936L123.184 221.04C123.418 220.88 123.696 220.725 124.016 220.576C124.336 220.416 124.682 220.288 125.056 220.192C125.429 220.085 125.824 220.032 126.24 220.032C126.869 220.032 127.381 220.165 127.776 220.432C128.181 220.688 128.474 221.056 128.656 221.536C128.848 222.016 128.944 222.581 128.944 223.232V228H127.856L127.744 227.072H127.696C127.322 227.381 126.922 227.648 126.496 227.872C126.069 228.085 125.61 228.192 125.12 228.192ZM125.488 227.104C125.872 227.104 126.229 227.019 126.56 226.848C126.901 226.677 127.258 226.427 127.632 226.096V224C126.757 224.107 126.064 224.245 125.552 224.416C125.05 224.576 124.688 224.779 124.464 225.024C124.24 225.269 124.128 225.563 124.128 225.904C124.128 226.331 124.261 226.64 124.528 226.832C124.794 227.013 125.114 227.104 125.488 227.104ZM137.249 228.192C136.268 228.192 135.484 227.84 134.897 227.136C134.321 226.421 134.033 225.419 134.033 224.128C134.033 223.285 134.188 222.56 134.497 221.952C134.817 221.333 135.233 220.859 135.745 220.528C136.257 220.197 136.812 220.032 137.409 220.032C137.868 220.032 138.257 220.112 138.577 220.272C138.908 220.421 139.244 220.64 139.585 220.928L139.521 219.6V216.608H140.849V228H139.761L139.649 227.088H139.601C139.303 227.387 138.951 227.648 138.545 227.872C138.14 228.085 137.708 228.192 137.249 228.192ZM137.537 227.088C137.9 227.088 138.241 226.997 138.561 226.816C138.881 226.635 139.201 226.368 139.521 226.016V221.952C139.201 221.653 138.887 221.445 138.577 221.328C138.268 221.2 137.953 221.136 137.633 221.136C137.217 221.136 136.839 221.264 136.497 221.52C136.167 221.765 135.9 222.112 135.697 222.56C135.495 222.997 135.393 223.515 135.393 224.112C135.393 225.04 135.58 225.771 135.953 226.304C136.327 226.827 136.855 227.088 137.537 227.088ZM146.62 228.192C145.927 228.192 145.292 228.032 144.716 227.712C144.151 227.381 143.703 226.917 143.372 226.32C143.042 225.712 142.876 224.976 142.876 224.112C142.876 223.269 143.047 222.544 143.388 221.936C143.73 221.328 144.167 220.859 144.7 220.528C145.234 220.197 145.799 220.032 146.396 220.032C147.058 220.032 147.618 220.187 148.076 220.496C148.546 220.795 148.898 221.216 149.132 221.76C149.367 222.304 149.484 222.944 149.484 223.68C149.484 223.819 149.479 223.952 149.468 224.08C149.468 224.208 149.452 224.336 149.42 224.464H143.82V223.424H148.3C148.3 222.677 148.135 222.107 147.804 221.712C147.484 221.307 147.02 221.104 146.412 221.104C146.06 221.104 145.714 221.205 145.372 221.408C145.031 221.6 144.748 221.915 144.524 222.352C144.311 222.789 144.204 223.371 144.204 224.096C144.204 224.757 144.316 225.312 144.54 225.76C144.775 226.208 145.09 226.549 145.484 226.784C145.879 227.008 146.311 227.12 146.78 227.12C147.154 227.12 147.5 227.067 147.82 226.96C148.151 226.853 148.45 226.709 148.716 226.528L149.196 227.392C148.855 227.627 148.471 227.819 148.044 227.968C147.628 228.117 147.154 228.192 146.62 228.192ZM151.406 228V220.224H152.494L152.606 221.344H152.654C153.027 220.971 153.422 220.661 153.838 220.416C154.254 220.16 154.728 220.032 155.262 220.032C156.083 220.032 156.68 220.293 157.054 220.816C157.438 221.328 157.63 222.08 157.63 223.072V228H156.318V223.248C156.318 222.512 156.2 221.984 155.966 221.664C155.742 221.333 155.368 221.168 154.846 221.168C154.451 221.168 154.094 221.269 153.774 221.472C153.464 221.675 153.112 221.973 152.718 222.368V228H151.406ZM162.78 231.584C162.15 231.584 161.59 231.499 161.1 231.328C160.62 231.168 160.241 230.933 159.964 230.624C159.697 230.315 159.564 229.936 159.564 229.488C159.564 229.157 159.665 228.837 159.868 228.528C160.07 228.229 160.348 227.963 160.7 227.728V227.664C160.508 227.536 160.342 227.371 160.204 227.168C160.076 226.955 160.012 226.699 160.012 226.4C160.012 226.069 160.102 225.781 160.284 225.536C160.476 225.291 160.668 225.099 160.86 224.96V224.896C160.614 224.683 160.385 224.395 160.172 224.032C159.958 223.669 159.852 223.259 159.852 222.8C159.852 222.235 159.985 221.744 160.252 221.328C160.529 220.912 160.886 220.592 161.324 220.368C161.772 220.144 162.257 220.032 162.78 220.032C162.993 220.032 163.196 220.053 163.388 220.096C163.58 220.128 163.745 220.171 163.884 220.224H166.588V221.232H164.972V221.296C165.164 221.467 165.318 221.68 165.436 221.936C165.564 222.192 165.628 222.496 165.628 222.848C165.628 223.403 165.5 223.883 165.244 224.288C164.988 224.683 164.646 224.992 164.22 225.216C163.793 225.429 163.313 225.536 162.78 225.536C162.588 225.536 162.39 225.515 162.188 225.472C161.985 225.419 161.793 225.349 161.612 225.264C161.484 225.381 161.366 225.509 161.26 225.648C161.164 225.787 161.116 225.968 161.116 226.192C161.116 226.437 161.212 226.64 161.404 226.8C161.606 226.96 161.969 227.04 162.492 227.04H163.996C164.902 227.04 165.58 227.189 166.028 227.488C166.486 227.776 166.716 228.245 166.716 228.896C166.716 229.376 166.556 229.819 166.236 230.224C165.916 230.629 165.457 230.955 164.86 231.2C164.273 231.456 163.58 231.584 162.78 231.584ZM162.78 224.656C163.078 224.656 163.35 224.581 163.596 224.432C163.852 224.272 164.054 224.053 164.204 223.776C164.353 223.499 164.428 223.173 164.428 222.8C164.428 222.224 164.268 221.781 163.948 221.472C163.628 221.152 163.238 220.992 162.78 220.992C162.321 220.992 161.932 221.152 161.612 221.472C161.292 221.781 161.132 222.224 161.132 222.8C161.132 223.173 161.206 223.499 161.356 223.776C161.505 224.053 161.702 224.272 161.948 224.432C162.204 224.581 162.481 224.656 162.78 224.656ZM162.972 230.672C163.462 230.672 163.889 230.597 164.252 230.448C164.625 230.299 164.913 230.101 165.116 229.856C165.329 229.611 165.436 229.355 165.436 229.088C165.436 228.725 165.297 228.475 165.02 228.336C164.753 228.197 164.369 228.128 163.868 228.128H162.524C162.374 228.128 162.209 228.117 162.028 228.096C161.857 228.075 161.686 228.043 161.516 228C161.228 228.203 161.02 228.416 160.892 228.64C160.774 228.864 160.716 229.088 160.716 229.312C160.716 229.728 160.913 230.059 161.308 230.304C161.713 230.549 162.268 230.672 162.972 230.672ZM169.76 228.192C169.334 228.192 168.944 228.107 168.592 227.936C168.251 227.755 167.979 227.504 167.776 227.184C167.574 226.853 167.472 226.453 167.472 225.984C167.472 225.109 167.856 224.448 168.624 224C169.392 223.552 170.608 223.237 172.272 223.056C172.262 222.736 172.208 222.427 172.112 222.128C172.027 221.829 171.867 221.589 171.632 221.408C171.398 221.227 171.072 221.136 170.656 221.136C170.208 221.136 169.787 221.221 169.392 221.392C168.998 221.552 168.646 221.733 168.336 221.936L167.824 221.04C168.059 220.88 168.336 220.725 168.656 220.576C168.976 220.416 169.323 220.288 169.696 220.192C170.07 220.085 170.464 220.032 170.88 220.032C171.51 220.032 172.022 220.165 172.416 220.432C172.822 220.688 173.115 221.056 173.296 221.536C173.488 222.016 173.584 222.581 173.584 223.232V228H172.496L172.384 227.072H172.336C171.963 227.381 171.563 227.648 171.136 227.872C170.71 228.085 170.251 228.192 169.76 228.192ZM170.128 227.104C170.512 227.104 170.87 227.019 171.2 226.848C171.542 226.677 171.899 226.427 172.272 226.096V224C171.398 224.107 170.704 224.245 170.192 224.416C169.691 224.576 169.328 224.779 169.104 225.024C168.88 225.269 168.768 225.563 168.768 225.904C168.768 226.331 168.902 226.64 169.168 226.832C169.435 227.013 169.755 227.104 170.128 227.104ZM176.031 228V220.224H177.119L177.231 221.344H177.279C177.652 220.971 178.047 220.661 178.463 220.416C178.879 220.16 179.353 220.032 179.887 220.032C180.708 220.032 181.305 220.293 181.679 220.816C182.063 221.328 182.255 222.08 182.255 223.072V228H180.943V223.248C180.943 222.512 180.825 221.984 180.591 221.664C180.367 221.333 179.993 221.168 179.471 221.168C179.076 221.168 178.719 221.269 178.399 221.472C178.089 221.675 177.737 221.973 177.343 222.368V228H176.031ZM187.984 228V216.608H189.296V224.304H189.328L192.624 220.224H194.096L191.504 223.36L194.448 228H193.008L190.736 224.256L189.296 225.952V228H187.984ZM197.542 228.192C197.115 228.192 196.726 228.107 196.374 227.936C196.032 227.755 195.76 227.504 195.558 227.184C195.355 226.853 195.254 226.453 195.254 225.984C195.254 225.109 195.638 224.448 196.406 224C197.174 223.552 198.39 223.237 200.054 223.056C200.043 222.736 199.99 222.427 199.894 222.128C199.808 221.829 199.648 221.589 199.414 221.408C199.179 221.227 198.854 221.136 198.438 221.136C197.99 221.136 197.568 221.221 197.174 221.392C196.779 221.552 196.427 221.733 196.118 221.936L195.606 221.04C195.84 220.88 196.118 220.725 196.438 220.576C196.758 220.416 197.104 220.288 197.478 220.192C197.851 220.085 198.246 220.032 198.661 220.032C199.291 220.032 199.803 220.165 200.198 220.432C200.603 220.688 200.896 221.056 201.078 221.536C201.27 222.016 201.366 222.581 201.366 223.232V228H200.278L200.166 227.072H200.118C199.744 227.381 199.344 227.648 198.918 227.872C198.491 228.085 198.032 228.192 197.542 228.192ZM197.91 227.104C198.294 227.104 198.651 227.019 198.982 226.848C199.323 226.677 199.68 226.427 200.054 226.096V224C199.179 224.107 198.486 224.245 197.974 224.416C197.472 224.576 197.11 224.779 196.886 225.024C196.662 225.269 196.549 225.563 196.549 225.904C196.549 226.331 196.683 226.64 196.95 226.832C197.216 227.013 197.536 227.104 197.91 227.104ZM206.041 228.144C205.22 228.144 204.644 227.904 204.313 227.424C203.983 226.944 203.817 226.32 203.817 225.552V221.296H202.665V220.304L203.881 220.224L204.041 217.728H205.145V220.224H207.257V221.296H205.145V225.568C205.145 226.037 205.231 226.405 205.401 226.672C205.583 226.939 205.897 227.072 206.345 227.072C206.484 227.072 206.628 227.061 206.777 227.04C206.927 227.008 207.076 226.955 207.225 226.88L207.513 227.808C207.311 227.904 207.081 227.984 206.825 228.048C206.569 228.112 206.308 228.144 206.041 228.144ZM210.448 228.192C210.021 228.192 209.632 228.107 209.28 227.936C208.938 227.755 208.666 227.504 208.464 227.184C208.261 226.853 208.16 226.453 208.16 225.984C208.16 225.109 208.544 224.448 209.312 224C210.08 223.552 211.296 223.237 212.96 223.056C212.949 222.736 212.896 222.427 212.8 222.128C212.714 221.829 212.554 221.589 212.32 221.408C212.085 221.227 211.76 221.136 211.344 221.136C210.896 221.136 210.474 221.221 210.08 221.392C209.685 221.552 209.333 221.733 209.024 221.936L208.512 221.04C208.746 220.88 209.024 220.725 209.344 220.576C209.664 220.416 210.01 220.288 210.384 220.192C210.757 220.085 211.152 220.032 211.568 220.032C212.197 220.032 212.709 220.165 213.104 220.432C213.509 220.688 213.802 221.056 213.984 221.536C214.176 222.016 214.272 222.581 214.272 223.232V228H213.184L213.072 227.072H213.024C212.65 227.381 212.25 227.648 211.824 227.872C211.397 228.085 210.938 228.192 210.448 228.192ZM210.816 227.104C211.2 227.104 211.557 227.019 211.888 226.848C212.229 226.677 212.586 226.427 212.96 226.096V224C212.085 224.107 211.392 224.245 210.88 224.416C210.378 224.576 210.016 224.779 209.792 225.024C209.568 225.269 209.456 225.563 209.456 225.904C209.456 226.331 209.589 226.64 209.856 226.832C210.122 227.013 210.442 227.104 210.816 227.104ZM219.921 228V216.608H221.233V224.304H221.265L224.561 220.224H226.033L223.441 223.36L226.385 228H224.945L222.673 224.256L221.233 225.952V228H219.921ZM229.897 228.192C229.075 228.192 228.473 227.936 228.089 227.424C227.715 226.901 227.529 226.144 227.529 225.152V220.224H228.841V224.976C228.841 225.701 228.953 226.229 229.177 226.56C229.411 226.88 229.785 227.04 230.297 227.04C230.691 227.04 231.043 226.939 231.353 226.736C231.673 226.523 232.019 226.192 232.393 225.744V220.224H233.705V228H232.617L232.505 226.784H232.457C232.105 227.211 231.721 227.552 231.305 227.808C230.899 228.064 230.43 228.192 229.897 228.192ZM236.328 228V220.224H237.416L237.528 221.344H237.576C237.949 220.971 238.344 220.661 238.76 220.416C239.176 220.16 239.65 220.032 240.184 220.032C241.005 220.032 241.602 220.293 241.976 220.816C242.36 221.328 242.552 222.08 242.552 223.072V228H241.24V223.248C241.24 222.512 241.122 221.984 240.888 221.664C240.664 221.333 240.29 221.168 239.768 221.168C239.373 221.168 239.016 221.269 238.696 221.472C238.386 221.675 238.034 221.973 237.64 222.368V228H236.328ZM248.166 228.192C247.472 228.192 246.848 228.032 246.294 227.712C245.739 227.392 245.302 226.928 244.982 226.32C244.662 225.712 244.502 224.981 244.502 224.128C244.502 223.253 244.672 222.512 245.014 221.904C245.366 221.296 245.824 220.832 246.39 220.512C246.966 220.192 247.584 220.032 248.246 220.032C248.758 220.032 249.195 220.117 249.558 220.288C249.931 220.459 250.251 220.677 250.518 220.944L249.862 221.76C249.67 221.568 249.44 221.419 249.174 221.312C248.918 221.195 248.624 221.136 248.294 221.136C247.835 221.136 247.419 221.264 247.046 221.52C246.683 221.765 246.395 222.112 246.182 222.56C245.968 223.008 245.862 223.531 245.862 224.128C245.862 224.715 245.963 225.232 246.166 225.68C246.368 226.128 246.651 226.48 247.014 226.736C247.376 226.981 247.798 227.104 248.278 227.104C248.64 227.104 248.976 227.035 249.286 226.896C249.595 226.757 249.862 226.581 250.086 226.368L250.662 227.168C250.331 227.477 249.958 227.728 249.542 227.92C249.126 228.101 248.667 228.192 248.166 228.192ZM252.375 228V220.224H253.687V228H252.375ZM253.031 218.624C252.775 218.624 252.561 218.544 252.391 218.384C252.231 218.224 252.151 218.016 252.151 217.76C252.151 217.504 252.231 217.296 252.391 217.136C252.561 216.976 252.775 216.896 253.031 216.896C253.287 216.896 253.495 216.976 253.655 217.136C253.825 217.296 253.911 217.504 253.911 217.76C253.911 218.016 253.825 218.224 253.655 218.384C253.495 218.544 253.287 218.624 253.031 218.624ZM259.643 231.344C259.472 231.344 259.307 231.328 259.147 231.296C258.998 231.264 258.859 231.227 258.731 231.184L259.019 230.16C259.115 230.192 259.211 230.213 259.307 230.224C259.403 230.245 259.494 230.256 259.579 230.256C260.027 230.256 260.39 230.096 260.667 229.776C260.955 229.467 261.179 229.072 261.339 228.592L261.515 228.016L258.395 220.224H259.755L261.339 224.528C261.467 224.859 261.595 225.216 261.723 225.6C261.851 225.984 261.974 226.357 262.091 226.72H262.155C262.272 226.357 262.384 225.989 262.491 225.616C262.608 225.232 262.715 224.869 262.811 224.528L264.203 220.224H265.483L262.555 228.64C262.374 229.152 262.155 229.611 261.899 230.016C261.643 230.432 261.334 230.757 260.971 230.992C260.608 231.227 260.166 231.344 259.643 231.344ZM268.463 228.192C268.037 228.192 267.647 228.107 267.295 227.936C266.954 227.755 266.682 227.504 266.479 227.184C266.277 226.853 266.175 226.453 266.175 225.984C266.175 225.109 266.559 224.448 267.327 224C268.095 223.552 269.311 223.237 270.975 223.056C270.965 222.736 270.911 222.427 270.815 222.128C270.73 221.829 270.57 221.589 270.335 221.408C270.101 221.227 269.775 221.136 269.359 221.136C268.911 221.136 268.49 221.221 268.095 221.392C267.701 221.552 267.349 221.733 267.039 221.936L266.527 221.04C266.762 220.88 267.039 220.725 267.359 220.576C267.679 220.416 268.026 220.288 268.399 220.192C268.773 220.085 269.167 220.032 269.583 220.032C270.213 220.032 270.725 220.165 271.119 220.432C271.525 220.688 271.818 221.056 271.999 221.536C272.191 222.016 272.287 222.581 272.287 223.232V228H271.199L271.087 227.072H271.039C270.666 227.381 270.266 227.648 269.839 227.872C269.413 228.085 268.954 228.192 268.463 228.192ZM268.831 227.104C269.215 227.104 269.573 227.019 269.903 226.848C270.245 226.677 270.602 226.427 270.975 226.096V224C270.101 224.107 269.407 224.245 268.895 224.416C268.394 224.576 268.031 224.779 267.807 225.024C267.583 225.269 267.471 225.563 267.471 225.904C267.471 226.331 267.605 226.64 267.871 226.832C268.138 227.013 268.458 227.104 268.831 227.104ZM274.734 228V220.224H275.822L275.934 221.344H275.982C276.355 220.971 276.75 220.661 277.166 220.416C277.582 220.16 278.057 220.032 278.59 220.032C279.411 220.032 280.009 220.293 280.382 220.816C280.766 221.328 280.958 222.08 280.958 223.072V228H279.646V223.248C279.646 222.512 279.529 221.984 279.294 221.664C279.07 221.333 278.697 221.168 278.174 221.168C277.779 221.168 277.422 221.269 277.102 221.472C276.793 221.675 276.441 221.973 276.046 222.368V228H274.734ZM286.108 231.584C285.479 231.584 284.919 231.499 284.428 231.328C283.948 231.168 283.569 230.933 283.292 230.624C283.025 230.315 282.892 229.936 282.892 229.488C282.892 229.157 282.993 228.837 283.196 228.528C283.399 228.229 283.676 227.963 284.028 227.728V227.664C283.836 227.536 283.671 227.371 283.532 227.168C283.404 226.955 283.34 226.699 283.34 226.4C283.34 226.069 283.431 225.781 283.612 225.536C283.804 225.291 283.996 225.099 284.188 224.96V224.896C283.943 224.683 283.713 224.395 283.5 224.032C283.287 223.669 283.18 223.259 283.18 222.8C283.18 222.235 283.313 221.744 283.58 221.328C283.857 220.912 284.215 220.592 284.652 220.368C285.1 220.144 285.585 220.032 286.108 220.032C286.321 220.032 286.524 220.053 286.716 220.096C286.908 220.128 287.073 220.171 287.212 220.224H289.916V221.232H288.3V221.296C288.492 221.467 288.647 221.68 288.764 221.936C288.892 222.192 288.956 222.496 288.956 222.848C288.956 223.403 288.828 223.883 288.572 224.288C288.316 224.683 287.975 224.992 287.548 225.216C287.121 225.429 286.641 225.536 286.108 225.536C285.916 225.536 285.719 225.515 285.516 225.472C285.313 225.419 285.121 225.349 284.94 225.264C284.812 225.381 284.695 225.509 284.588 225.648C284.492 225.787 284.444 225.968 284.444 226.192C284.444 226.437 284.54 226.64 284.732 226.8C284.935 226.96 285.297 227.04 285.82 227.04H287.324C288.231 227.04 288.908 227.189 289.356 227.488C289.815 227.776 290.044 228.245 290.044 228.896C290.044 229.376 289.884 229.819 289.564 230.224C289.244 230.629 288.785 230.955 288.188 231.2C287.601 231.456 286.908 231.584 286.108 231.584ZM286.108 224.656C286.407 224.656 286.679 224.581 286.924 224.432C287.18 224.272 287.383 224.053 287.532 223.776C287.681 223.499 287.756 223.173 287.756 222.8C287.756 222.224 287.596 221.781 287.276 221.472C286.956 221.152 286.567 220.992 286.108 220.992C285.649 220.992 285.26 221.152 284.94 221.472C284.62 221.781 284.46 222.224 284.46 222.8C284.46 223.173 284.535 223.499 284.684 223.776C284.833 224.053 285.031 224.272 285.276 224.432C285.532 224.581 285.809 224.656 286.108 224.656ZM286.3 230.672C286.791 230.672 287.217 230.597 287.58 230.448C287.953 230.299 288.241 230.101 288.444 229.856C288.657 229.611 288.764 229.355 288.764 229.088C288.764 228.725 288.625 228.475 288.348 228.336C288.081 228.197 287.697 228.128 287.196 228.128H285.852C285.703 228.128 285.537 228.117 285.356 228.096C285.185 228.075 285.015 228.043 284.844 228C284.556 228.203 284.348 228.416 284.22 228.64C284.103 228.864 284.044 229.088 284.044 229.312C284.044 229.728 284.241 230.059 284.636 230.304C285.041 230.549 285.596 230.672 286.3 230.672ZM296.142 228.144C295.811 228.144 295.544 228.08 295.342 227.952C295.139 227.813 294.99 227.616 294.894 227.36C294.798 227.093 294.75 226.773 294.75 226.4V216.608H296.062V226.496C296.062 226.709 296.099 226.859 296.174 226.944C296.248 227.019 296.339 227.056 296.446 227.056C296.488 227.056 296.526 227.056 296.558 227.056C296.6 227.045 296.654 227.035 296.718 227.024L296.91 228.016C296.814 228.048 296.702 228.075 296.574 228.096C296.456 228.128 296.312 228.144 296.142 228.144ZM300.62 228.192C300.193 228.192 299.804 228.107 299.452 227.936C299.11 227.755 298.838 227.504 298.636 227.184C298.433 226.853 298.332 226.453 298.332 225.984C298.332 225.109 298.716 224.448 299.484 224C300.252 223.552 301.468 223.237 303.132 223.056C303.121 222.736 303.068 222.427 302.972 222.128C302.886 221.829 302.726 221.589 302.492 221.408C302.257 221.227 301.932 221.136 301.516 221.136C301.068 221.136 300.646 221.221 300.252 221.392C299.857 221.552 299.505 221.733 299.196 221.936L298.684 221.04C298.918 220.88 299.196 220.725 299.516 220.576C299.836 220.416 300.182 220.288 300.556 220.192C300.929 220.085 301.324 220.032 301.74 220.032C302.369 220.032 302.881 220.165 303.276 220.432C303.681 220.688 303.974 221.056 304.156 221.536C304.348 222.016 304.444 222.581 304.444 223.232V228H303.356L303.244 227.072H303.196C302.822 227.381 302.422 227.648 301.996 227.872C301.569 228.085 301.11 228.192 300.62 228.192ZM300.988 227.104C301.372 227.104 301.729 227.019 302.06 226.848C302.401 226.677 302.758 226.427 303.132 226.096V224C302.257 224.107 301.564 224.245 301.052 224.416C300.55 224.576 300.188 224.779 299.964 225.024C299.74 225.269 299.628 225.563 299.628 225.904C299.628 226.331 299.761 226.64 300.028 226.832C300.294 227.013 300.614 227.104 300.988 227.104ZM306.89 228V220.224H308.202V228H306.89ZM307.546 218.624C307.29 218.624 307.077 218.544 306.906 218.384C306.746 218.224 306.666 218.016 306.666 217.76C306.666 217.504 306.746 217.296 306.906 217.136C307.077 216.976 307.29 216.896 307.546 216.896C307.802 216.896 308.01 216.976 308.17 217.136C308.341 217.296 308.426 217.504 308.426 217.76C308.426 218.016 308.341 218.224 308.17 218.384C308.01 218.544 307.802 218.624 307.546 218.624ZM310.828 228V220.224H311.916L312.028 221.344H312.076C312.449 220.971 312.844 220.661 313.26 220.416C313.676 220.16 314.15 220.032 314.684 220.032C315.505 220.032 316.102 220.293 316.476 220.816C316.86 221.328 317.052 222.08 317.052 223.072V228H315.74V223.248C315.74 222.512 315.622 221.984 315.388 221.664C315.164 221.333 314.79 221.168 314.268 221.168C313.873 221.168 313.516 221.269 313.196 221.472C312.886 221.675 312.534 221.973 312.14 222.368V228H310.828ZM320.266 228.192C320.01 228.192 319.786 228.101 319.594 227.92C319.402 227.728 319.306 227.488 319.306 227.2C319.306 226.891 319.402 226.645 319.594 226.464C319.786 226.272 320.01 226.176 320.266 226.176C320.532 226.176 320.756 226.272 320.938 226.464C321.119 226.645 321.21 226.891 321.21 227.2C321.21 227.488 321.119 227.728 320.938 227.92C320.756 228.101 320.532 228.192 320.266 228.192Z" fill="#212426"/>
<defs>
<clipPath id="clip0_223_7846">
<rect width="240" height="135" fill="white" transform="translate(90)"/>
</clipPath>
</defs>
</svg>
