<svg width="14" height="14" viewBox="0 0 14 14" fill="none" xmlns="http://www.w3.org/2000/svg">
<path d="M13.71 4.285L13.2314 2.035C13.0145 1 12.0873 0.25 11.0404 0.25H2.97194C1.91758 0.25 0.997824 1 0.773492 2.035L0.302395 4.285C0.160318 4.9525 0.324828 5.635 0.751058 6.1675C1.02026 6.4975 1.37919 6.73 1.76803 6.865V11.5C1.76803 12.7375 2.77752 13.75 4.01135 13.75H9.99353C11.2274 13.75 12.2369 12.7375 12.2369 11.5V6.865C12.6332 6.73 12.9846 6.4975 13.2538 6.1675C13.6801 5.635 13.8446 4.9525 13.7025 4.285H13.71ZM5.95556 1.75H8.0568L8.26618 4.6975C8.28113 4.9075 8.21383 5.11 8.06428 5.26C7.9222 5.4175 7.72778 5.5 7.5184 5.5H6.49396C6.28458 5.5 6.09016 5.4175 5.94808 5.26C5.806 5.1025 5.73123 4.9075 5.74618 4.6975L5.95556 1.75ZM2.23913 2.3425C2.3139 1.9975 2.62049 1.75 2.97194 1.75H4.45254L4.25064 4.5925L4.23568 4.8025C4.20577 5.1925 3.87675 5.5 3.48791 5.5H2.49337C2.26904 5.5 2.05218 5.395 1.91011 5.2225C1.76803 5.0425 1.71569 4.8175 1.76055 4.5925L2.23913 2.3425ZM6.25467 12.25V10.75C6.25467 10.3375 6.59117 10 7.00244 10C7.41372 10 7.75021 10.3375 7.75021 10.75V12.25H6.25467ZM9.99353 12.25H9.24576V10.75C9.24576 9.5125 8.23627 8.5 7.00244 8.5C5.76862 8.5 4.75912 9.5125 4.75912 10.75V12.25H4.01135C3.60007 12.25 3.26358 11.9125 3.26358 11.5V7H3.48791C4.06369 7 4.59461 6.775 4.99093 6.415C5.40221 6.7825 5.93313 7 6.48648 7H7.51093C8.06428 7 8.5952 6.7825 9.00647 6.415C9.41027 6.7825 9.93371 7 10.5095 7H10.7338V11.5C10.7338 11.9125 10.3973 12.25 9.98606 12.25H9.99353ZM12.0948 5.2225C11.9527 5.4025 11.7433 5.5 11.5115 5.5H10.517C10.1281 5.5 9.79911 5.1925 9.7692 4.8025L9.75425 4.5925L9.55235 1.75H11.0329C11.3844 1.75 11.691 1.9975 11.7658 2.3425L12.2443 4.5925C12.2892 4.8175 12.2369 5.0425 12.0948 5.2225Z" fill="#4B5258"/>
</svg>
